<svg xmlns="http://www.w3.org/2000/svg" version="1.1" x="0" y="0" width="733" height="487" viewBox="0 0 733 487" enable-background="new 0 0 733 487" xml:space="preserve"><defs><path d="M23 185h123c1.1 0 2 0.9 2 2v218c0 1.1-0.9 2-2 2H23c-1.1 0-2-0.9-2-2V187C21 185.9 21.9 185 23 185L23 185z"/></defs><clipPath><use overflow="visible"/></clipPath><g clip-path="url(#SVGID_1_)"><image overflow="visible" width="733" height="487" transform="matrix(1 0 0 1 6.0048 -32.0256)"/></g><defs><path d="M92.6 16.7c2.3 0 4.1 1.8 4.1 4.1 0 2.3-1.8 4.1-4.1 4.1 -2.3 0-4.1-1.8-4.1-4.1C88.6 18.6 90.4 16.7 92.6 16.7L92.6 16.7z"/></defs><use overflow="visible" fill-rule="evenodd" clip-rule="evenodd" fill="#AAAAAA"/><clipPath><use overflow="visible"/></clipPath><g clip-path="url(#SVGID_4_)"><image overflow="visible" width="733" height="487" transform="matrix(1 0 0 1 -7.0056 0)"/></g><defs><path d="M109.1 16.7c2.3 0 4.1 1.8 4.1 4.1 0 2.3-1.8 4.1-4.1 4.1 -2.3 0-4.1-1.8-4.1-4.1C105 18.6 106.8 16.7 109.1 16.7L109.1 16.7z"/></defs><use overflow="visible" fill-rule="evenodd" clip-rule="evenodd" fill="#AAAAAA"/><clipPath><use overflow="visible"/></clipPath><g clip-path="url(#SVGID_6_)"><image overflow="visible" width="733" height="487" transform="matrix(1 0 0 1 -7.0056 0)"/></g><defs><path d="M125.5 16.7c2.3 0 4.1 1.8 4.1 4.1 0 2.3-1.8 4.1-4.1 4.1 -2.3 0-4.1-1.8-4.1-4.1C121.4 18.6 123.2 16.7 125.5 16.7L125.5 16.7z"/></defs><use overflow="visible" fill-rule="evenodd" clip-rule="evenodd" fill="#AAAAAA"/><clipPath><use overflow="visible"/></clipPath><g clip-path="url(#SVGID_8_)"><image overflow="visible" width="733" height="487" transform="matrix(1 0 0 1 -7.0056 0)"/></g><path fill="none" stroke="#AAAAAA" stroke-width="1.5" stroke-miterlimit="10" d="M75.1 390c0 2.2 1.8 4 4 4h626.8c2.2 0 4-1.8 4-4V10.4c0-2.2-1.8-4-4-4H79.1c-2.2 0-4 1.8-4 4V390z"/><line fill="none" stroke="#AAAAAA" stroke-width="1.5" stroke-miterlimit="10" x1="74.5" y1="35.4" x2="709.9" y2="35.4"/><path fill="#EBEAED" stroke="#AAAAAA" stroke-width="1.5" stroke-miterlimit="10" d="M157.1 208.3c0-9.2 0-16.9 0-19.3 0-7.4-0.8-11-18.7-12.9 -17.1-1.9-46.5-2.3-49.2-2.3l0 0v0c0 0-31.1 0.4-49 2.3 -17.9 2-18.7 5.5-18.7 12.9 0 3.9 0 21.7 0 37.5 -0.1-0.1-0.2-0.1-0.3-0.1h-0.2c-0.4 0-0.7 0.3-0.7 0.7v41.2c0 0.4 0.3 0.7 0.7 0.7h0.2c0.1 0 0.2 0 0.3-0.1v95.9 1.1c0 8 0 55.8 0 62.6 0 7.4 0.8 11 18.7 12.9 17.9 2 49 2.3 49 2.3l0 0c0 0 31.3-0.3 49.2-2.3 17.9-2 18.7-5.5 18.7-12.9 0-6.8 0-54.8 0-62.7l0 0v-1.1 -112 -13.1l0 0c0-4.2 0-9.1 0-14.1 0.1 0 0.2 0.1 0.3 0.1h0.2c0.4 0 0.7-0.3 0.7-0.7v-16.1c0-0.4-0.3-0.7-0.7-0.7h-0.2C157.3 208.2 157.2 208.2 157.1 208.3L157.1 208.3zM30 197.2h118.6c1.1 0 2.1 0.9 2.1 2.1V413c0 1.1-0.9 2.1-2.1 2.1H30c-1.1 0-2.1-0.9-2.1-2.1V199.3C28 198.2 28.9 197.2 30 197.2z"/><circle fill="#C4C3C7" stroke="#AAAAAA" stroke-width="1.5" stroke-miterlimit="10" cx="89.3" cy="187.4" r="2.9"/><circle fill="#C4C3C7" stroke="#AAAAAA" stroke-width="1.5" stroke-miterlimit="10" cx="44" cy="187.4" r="1.5"/></svg>