<svg xmlns="http://www.w3.org/2000/svg" version="1.1" x="0" y="0" width="572" height="576" viewBox="0 0 572 576" xml:space="preserve"><style type="text/css">
	.st0{fill:#515354;}
	.st1{fill:#DC4C3F;stroke:#DC4C3E;stroke-width:5;stroke-miterlimit:10;}
	.st2{fill:#DC4C3F;}
	.st3{fill:#FFFFFF;}
	.st4{fill:#515151;}
</style><path class="st0" d="M399.3 319l-11.8 0.2c-0.8 0-1.5 0.7-1.5 1.5l0.2 9.6 -10.6 0.2c-0.8 0-1.5 0.7-1.5 1.5l0.2 11.5 -45.9 0.7c-1.7-5.9-6.8-10.2-13-10.7l-4.5-27.8c-2.6 1.2-5.6 1.8-8.6 1.9l0 0c-0.8 0-1.6-0.1-2.3-0.2l4.8 29.5c-3.3 2.8-5.4 6.9-5.3 11.5 0.1 8.2 6.8 14.7 15 14.6 5.5-0.1 10.3-3.2 12.7-7.7l47.3-0.7 0.2 11.5c0 0.8 0.7 1.5 1.5 1.5l10.6-0.2 0.1 9.6c0 0.8 0.7 1.5 1.5 1.4l11.8-0.2c0.8 0 1.5-0.7 1.5-1.5l-0.8-56.3C400.8 319.7 400.2 319 399.3 319zM300.5 257.5c13.6-0.2 24.9 10.2 26.1 23.6l30.5-11.6 11.5-31.4 -14.8-38.7 -173.1 66 37.6 57 61.7-23.5c-3.1-4.2-5-9.3-5.1-15C274.7 269.5 286.2 257.7 300.5 257.5zM231.1 291.4c-6 2.3-12.7-0.7-15-6.7 -2.2-6 0.7-12.7 6.7-14.9 6-2.3 12.7 0.7 14.9 6.7C240 282.4 237 289.1 231.1 291.4z"/><path class="st1" d="M182.5 281.2c-0.8-2.1-3.2-3.2-5.4-2.4l-11.7 4.4c-2.1 0.8-3.2 3.2-2.4 5.3l14.8 38.9c0.8 2.1 3.2 3.2 5.4 2.4l11.6-4.4c2.1-0.8 3.2-3.2 2.4-5.4L182.5 281.2z"/><path class="st2" d="M278.3 283.7c-0.1-3.1 0.4-6 1.4-8.8 1.1-2.8 2.6-5.3 4.6-7.4 2-2.1 4.4-3.8 7.1-5 2.8-1.2 5.7-1.9 8.8-2 3.1-0.1 6.1 0.4 8.9 1.4 2.8 1 5.3 2.6 7.4 4.5 2.1 2 3.8 4.3 5.1 7 1.2 2.7 1.9 5.6 2 8.7 0.1 3.1-0.4 6-1.4 8.8 -1.1 2.8-2.6 5.3-4.6 7.4 -2 2.1-4.4 3.8-7.1 5 -2.8 1.2-5.7 1.9-8.8 2 -3.1 0.1-6.1-0.4-8.9-1.4 -2.8-1-5.3-2.6-7.4-4.5 -2.1-2-3.8-4.3-5.1-7C279.1 289.7 278.4 286.8 278.3 283.7z"/><path class="st3" d="M311.4 289.6c-1 1.4-2.3 2.5-4 3.3 -1.6 0.8-3.3 1.2-5.1 1.3 -1.7 0.1-3.2-0.2-4.7-0.6 -1.5-0.5-2.8-1.2-3.9-2.1 -1.1-0.9-2-2.1-2.7-3.5 -0.7-1.4-1-2.9-1.1-4.6 -0.1-1.7 0.2-3.3 0.8-4.7 0.6-1.4 1.4-2.6 2.4-3.6 1.1-1 2.3-1.8 3.8-2.4s3-0.9 4.7-1c1.5-0.1 3 0.2 4.2 0.7 1.3 0.5 2.4 1.2 3.3 2.2 0.9 1 1.6 2.1 2.1 3.5 0.5 1.4 0.8 2.9 0.9 4.6l0.1 2.1 -15.5 0.5c0.3 1.3 0.9 2.2 1.8 3 0.9 0.7 2 1.1 3.3 1 1.1 0 2-0.3 2.8-0.8 0.7-0.5 1.4-1.2 1.9-1.9L311.4 289.6zM305.4 280.4c0-1.1-0.4-2.1-1.2-2.8 -0.8-0.8-1.8-1.1-3-1.1 -0.7 0-1.4 0.2-2 0.4 -0.6 0.3-1 0.6-1.4 1 -0.4 0.4-0.7 0.8-0.9 1.3 -0.2 0.5-0.3 1-0.3 1.5L305.4 280.4z"/><path class="st4" d="M45.6 263.3c-15.7 0-28.3 12.7-28.3 28.3S30 320 45.6 320 74 307.3 74 291.7C74 276 61.3 263.3 45.6 263.3zM53 291.7l-4.6 0 0 17h-6.4v-17h-4.3v-5.9l4.3 0 0-3.5c0-4.8 1.3-7.7 6.9-7.7h4.7v5.9h-2.9c-2.2 0-2.3 0.8-2.3 2.3l0 2.9h5.3L53 291.7z"/><path class="st4" d="M288.4 75.3c-13.1 0-23.7-10.7-23.7-23.7 0-7.6 3.7-14.9 9.9-19.3 1.7-1.2 4-0.8 5.2 0.9 1.2 1.7 0.8 4-0.9 5.2 -4.3 3-6.8 8-6.8 13.2 0 9 7.3 16.2 16.2 16.2s16.2-7.3 16.2-16.2c0-5.2-2.5-10.2-6.8-13.2 -1.7-1.2-2.1-3.5-0.9-5.2 1.2-1.7 3.5-2.1 5.2-0.9 6.2 4.5 9.9 11.7 9.9 19.3C312.1 64.7 301.5 75.3 288.4 75.3z"/><path class="st4" d="M288.4 50.5c-2.1 0-3.7-1.7-3.7-3.7V25.5c0-2.1 1.7-3.7 3.7-3.7 2.1 0 3.7 1.7 3.7 3.7v21.2C292.1 48.9 290.5 50.5 288.4 50.5z"/><path class="st4" d="M398.2 62.9H369c-0.9 0-1.7 0.8-1.7 1.7v5.8c0 0.9 0.8 1.7 1.7 1.7h29.2c0.9 0 1.7-0.8 1.7-1.7v-5.8C399.9 63.7 399.2 62.9 398.2 62.9zM370.4 66.9c-0.6 0-1-0.5-1-1 0-0.6 0.5-1 1-1 0.6 0 1 0.5 1 1C371.4 66.4 371 66.9 370.4 66.9zM395.5 69.9h-7.4v-2.5h7.4L395.5 69.9 395.5 69.9z"/><path class="st4" d="M398.2 73H369c-0.9 0-1.7 0.8-1.7 1.7v5.8c0 0.9 0.8 1.7 1.7 1.7h29.2c0.9 0 1.7-0.8 1.7-1.7v-5.8C399.9 73.7 399.2 73 398.2 73zM370.4 77c-0.6 0-1-0.5-1-1 0-0.6 0.5-1 1-1 0.6 0 1 0.5 1 1C371.4 76.5 371 77 370.4 77zM395.5 80h-7.4v-2.5h7.4L395.5 80 395.5 80z"/><path class="st4" d="M398.2 83H369c-0.9 0-1.7 0.8-1.7 1.7v5.8c0 0.9 0.8 1.7 1.7 1.7h29.2c0.9 0 1.7-0.8 1.7-1.7v-5.8C399.9 83.8 399.2 83 398.2 83zM370.4 87.1c-0.6 0-1-0.5-1-1 0-0.6 0.5-1 1-1 0.6 0 1 0.5 1 1C371.4 86.6 371 87.1 370.4 87.1zM395.5 90.1h-7.4v-2.5h7.4L395.5 90.1 395.5 90.1z"/><polygon class="st4" points="388.7 97.7 385.6 97.7 385.6 93.2 381.7 93.2 381.7 97.7 378.6 97.7 378.6 98.9 367.7 98.9 367.7 102.8 378.6 102.8 378.6 104 388.7 104 388.7 102.8 399.6 102.8 399.6 98.9 388.7 98.9 "/><path class="st4" d="M400.9 53.6c-0.4 0-0.8-0.2-1.1-0.6 -2.3-3.2-6.1-5.1-10.1-5.1 -0.3 0-0.5 0-0.8 0 -0.3 0-0.7-0.1-1-0.3 -2.4-1.8-5.4-2.8-8.5-2.8 -5.5 0-10.4 3.2-12.7 8.1 -0.2 0.4-0.6 0.8-1.1 0.8 -6.1 0.9-10.8 6.1-10.8 12.4 0 6 4.3 11.1 10 12.3v-3.7c0-0.5 0.1-0.9 0.2-1.3 -3-1-5.2-3.9-5.2-7.2 0-4.2 3.4-7.6 7.6-7.6 0.2 0 0.4 0 0.6 0 1.2 0.1 2.3-0.7 2.6-1.9 1-4.1 4.7-6.9 8.9-6.9 2.4 0 4.7 0.9 6.4 2.6 0.6 0.6 1.4 0.8 2.2 0.7 0.5-0.1 1-0.2 1.6-0.2 2.9 0 5.6 1.7 6.8 4.3 0.5 0.9 1.4 1.5 2.5 1.4 0.3 0 0.5 0 0.8 0 4.2 0 7.6 3.4 7.6 7.6 0 3.4-2.2 6.2-5.2 7.2 0.1 0.4 0.2 0.9 0.2 1.3v3.7c5.7-1.2 10-6.2 10-12.3C412.4 59.5 407.3 54.1 400.9 53.6z"/><path class="st4" d="M288.9 546.9c-8.5 0-15.4-6.9-15.4-15.4 0-8.5 6.9-15.4 15.4-15.4 8.5 0 15.4 6.9 15.4 15.4C304.3 540 297.4 546.9 288.9 546.9zM288.9 504.9c-14.7 0-26.6 11.9-26.6 26.6 0 14.7 11.9 26.6 26.6 26.6s26.6-11.9 26.6-26.6C315.4 516.9 303.5 504.9 288.9 504.9"/><path class="st4" d="M286 531.4c-1.6 0-2.9-1.3-2.9-2.9 0-1.6 1.3-2.9 2.9-2.9 1.6 0 2.9 1.3 2.9 2.9C288.9 530.1 287.6 531.4 286 531.4zM288.9 521.9c-5.3 0-9.6 4.3-9.6 9.6 0 5.3 4.3 9.6 9.6 9.6 5.3 0 9.6-4.3 9.6-9.6C298.5 526.2 294.2 521.9 288.9 521.9"/><path class="st4" d="M484.7 441.2h-47.9c-2.4 0-4.4 2-4.4 4.4v32.9c0 2.4 2 4.4 4.4 4.4h47.9c2.4 0 4.4-2 4.4-4.4v-32.9C489.1 443.2 487.1 441.2 484.7 441.2zM486.1 478.6c0 0.8-0.7 1.5-1.5 1.5h-47.9c-0.8 0-1.5-0.7-1.5-1.5v-32.9c0-0.8 0.7-1.5 1.5-1.5h47.9c0.8 0 1.5 0.7 1.5 1.5V478.6z"/><path class="st4" d="M481 473.7h-10.5v-0.4c0-0.8-0.7-1.5-1.5-1.5 -0.8 0-1.5 0.7-1.5 1.5v0.4h-27.2c-0.8 0-1.5 0.7-1.5 1.5s0.7 1.5 1.5 1.5h27.2v0.4c0 0.8 0.7 1.5 1.5 1.5 0.8 0 1.5-0.7 1.5-1.5v-0.4H481c0.8 0 1.5-0.7 1.5-1.5S481.8 473.7 481 473.7z"/><path class="st4" d="M460.7 471c6.2 0 11.2-5 11.2-11.2 0-6.2-5-11.2-11.2-11.2 -6.2 0-11.2 5-11.2 11.2C449.5 465.9 454.6 471 460.7 471zM460.7 450.9c4.9 0 8.9 4 8.9 8.9s-4 8.9-8.9 8.9c-4.9 0-8.9-4-8.9-8.9S455.9 450.9 460.7 450.9z"/><path class="st4" d="M458.3 466.3c0.3 0 0.7-0.1 1-0.3l7.1-4.7c0.6-0.4 0.9-0.9 0.9-1.5s-0.3-1.2-0.9-1.5l-7.1-4.7c-0.3-0.2-0.7-0.3-1-0.3 -0.8 0-1.6 0.6-1.6 1.8v9.5C456.7 465.7 457.5 466.3 458.3 466.3zM459 456.2l5.4 3.6 -5.4 3.6V456.2z"/><path class="st4" d="M514.8 353.9c-15.7 0-28.3 12.7-28.3 28.3s12.7 28.3 28.3 28.3c15.7 0 28.3-12.7 28.3-28.3C543.2 366.6 530.5 353.9 514.8 353.9zM528.9 375.9l0 0.9c0 9.2-7 19.9-19.9 19.9 -3.9 0-7.6-1.2-10.7-3.1 0.5 0.1 1.1 0.1 1.7 0.1 3.3 0 6.3-1.1 8.7-3 -3.1-0.1-5.6-2.1-6.5-4.8 0.4 0.1 0.9 0.1 1.3 0.1 0.6 0 1.3-0.1 1.8-0.2 -3.2-0.6-5.6-3.5-5.6-6.8v-0.1c0.9 0.5 2 0.8 3.2 0.9 -1.9-1.3-3.1-3.4-3.1-5.8 0-1.3 0.3-2.5 0.9-3.5 3.4 4.2 8.6 7 14.4 7.3 -0.1-0.5-0.2-1-0.2-1.6 0-3.9 3.1-7 7-7 2 0 3.8 0.8 5.1 2.2 1.6-0.3 3.1-0.9 4.4-1.7 -0.5 1.6-1.6 3-3.1 3.9 1.4-0.2 2.8-0.5 4-1.1C531.5 373.7 530.3 374.9 528.9 375.9z"/><path class="st4" d="M539.9 280.4c-2.8-3-6.9-4.6-10.7-4.6v15.2l-10.7 10.7c5.8 5.8 15.5 5.8 21.6 0C546 295.9 546 286.3 539.9 280.4zM529.2 265.7c-14 0-25.4 11.4-25.4 25.4 0 14 11.4 25.4 25.4 25.4 14 0 25.4-11.4 25.4-25.4C554.6 277.1 543.2 265.7 529.2 265.7zM529.2 311.4c-11.2 0-20.3-9.1-20.3-20.3s9.1-20.3 20.3-20.3c11.2 0 20.3 9.1 20.3 20.3S540.4 311.4 529.2 311.4z"/><path class="st4" d="M532.7 218.6h-42.1v-38.5c0-0.7-0.5-1.2-1.2-1.2 -0.7 0-1.2 0.5-1.2 1.2v39.7c0 0.7 0.5 1.2 1.2 1.2h43.4c0.7 0 1.2-0.5 1.2-1.2C533.9 219.1 533.4 218.6 532.7 218.6z"/><path class="st4" d="M491.7 215.4c-0.1 0-0.1 0.1-0.1 0.1s0.1 0.1 0.1 0.1h2c0 0.3 0.2 0.5 0.6 0.5h7.7c0.3 0 0.5-0.2 0.6-0.5h4.6c0 0.3 0.2 0.5 0.6 0.5h7.7c0.3 0 0.5-0.2 0.6-0.5h4.6c0 0.3 0.2 0.5 0.6 0.5h7.7c0.3 0 0.5-0.2 0.6-0.5h1.1c0.1 0 0.1-0.1 0.1-0.1s-0.1-0.1-0.1-0.1h-1.1v-7.1h1.1c0.1 0 0.1-0.1 0.1-0.1 0-0.1-0.1-0.1-0.1-0.1h-1.1V201h1.1c0.1 0 0.1-0.1 0.1-0.1 0-0.1-0.1-0.1-0.1-0.1h-1.1v-3.9c0-0.3-0.2-0.6-0.6-0.6H521c-0.3 0-0.6 0.2-0.6 0.6v3.9h-4.6v-7.1h14.5c0.1 0 0.1-0.1 0.1-0.1 0-0.1-0.1-0.1-0.1-0.1h-14.5v-7.1h14.5c0.1 0 0.1-0.1 0.1-0.1s-0.1-0.1-0.1-0.1h-14.5v-2.7c0-0.3-0.2-0.6-0.6-0.6h-7.7c-0.3 0-0.6 0.2-0.6 0.6v2.7h-15.4c-0.1 0-0.1 0.1-0.1 0.1s0.1 0.1 0.1 0.1h15.4v7.1h-15.4c-0.1 0-0.1 0.1-0.1 0.1 0 0.1 0.1 0.1 0.1 0.1h15.4v7.1h-4.6v-3.9c0-0.3-0.2-0.6-0.6-0.6h-7.7c-0.3 0-0.6 0.2-0.6 0.6v3.9h-2c-0.1 0-0.1 0.1-0.1 0.1 0 0.1 0.1 0.1 0.1 0.1h2v7.1h-2c-0.1 0-0.1 0.1-0.1 0.1 0 0.1 0.1 0.1 0.1 0.1h2v7.1H491.7zM520.5 215.4h-4.6v-7.1h4.6V215.4zM520.5 201v7.1h-4.6V201H520.5zM502.5 201h4.6v7.1h-4.6V201zM502.5 208.3h4.6v7.1h-4.6V208.3z"/><path class="st4" d="M128.9 105.4h-0.5l-3.7-11c-0.4-1.2-1.7-2.1-2.9-2.1h-13.3c-1.3 0-2.5 0.9-2.9 2.1l-3.7 11h-0.5c-2.1 0-3.7 1.7-3.7 3.7v25.1c0 2.1 1.7 3.7 3.7 3.7h0.6l3.6 9c0.5 1.2 1.7 2 3 2h13.3c1.2 0 2.5-0.8 3-2l3.6-9h0.6c2.1 0 3.7-1.7 3.7-3.7v-25.1C132.7 107.1 131 105.4 128.9 105.4zM108.7 95.5h13.1l3.3 9.9h-19.7L108.7 95.5zM121.8 145.7C121.8 145.7 121.8 145.7 121.8 145.7l-13.2 0c0 0 0 0 0 0l-3.1-7.7h19.4L121.8 145.7zM129.5 134.2c0 0.3-0.2 0.5-0.5 0.5h-1.7c0 0 0 0 0 0h-24.1c0 0 0 0 0 0h-1.7c-0.3 0-0.5-0.2-0.5-0.5v-25.1c0-0.3 0.2-0.5 0.5-0.5h1.6c0 0 0 0 0 0h24.2c0 0 0 0 0 0s0 0 0 0h1.6c0.3 0 0.5 0.2 0.5 0.5C129.5 109.1 129.5 134.2 129.5 134.2z"/><path class="st4" d="M111.6 111.2h-5.5c-1.3 0-2.3 1.1-2.3 2.3v4.8c0 1.3 1.1 2.3 2.3 2.3h5.5c1.3 0 2.3-1.1 2.3-2.3v-4.8C114 112.3 112.9 111.2 111.6 111.2zM111.4 118.2h-5v-4.4h5V118.2z"/><path class="st4" d="M124.2 111.2h-5.5c-1.3 0-2.3 1.1-2.3 2.3v4.8c0 1.3 1.1 2.3 2.3 2.3h5.5c1.3 0 2.3-1.1 2.3-2.3v-4.8C126.6 112.3 125.5 111.2 124.2 111.2zM124 118.2h-5v-4.4h5V118.2z"/><path class="st4" d="M111.6 122.6h-5.5c-1.3 0-2.3 1.1-2.3 2.3v4.8c0 1.3 1.1 2.3 2.3 2.3h5.5c1.3 0 2.3-1.1 2.3-2.3V125C114 123.7 112.9 122.6 111.6 122.6zM111.4 129.5h-5v-4.4h5V129.5z"/><path class="st4" d="M124.2 122.6h-5.5c-1.3 0-2.3 1.1-2.3 2.3v4.8c0 1.3 1.1 2.3 2.3 2.3h5.5c1.3 0 2.3-1.1 2.3-2.3V125C126.6 123.7 125.5 122.6 124.2 122.6zM124 129.5h-5v-4.4h5V129.5z"/><path class="st4" d="M219.6 47.3c0-1.5-1.2-2.7-2.7-2.7h-42.7c-1.5 0-2.7 1.2-2.7 2.7v36.3c0 1.5 1.2 2.7 2.7 2.7h42.7c1.5 0 2.7-1.2 2.7-2.7L219.6 47.3 219.6 47.3zM216.4 83.2h-41.9V47.8h41.9L216.4 83.2 216.4 83.2z"/><path class="st4" d="M178.8 79.6h18.1c0.9 0 1.6-0.7 1.6-1.5 0-0.9-0.7-1.5-1.6-1.5h-18.1c-0.9 0-1.6 0.7-1.6 1.5C177.3 78.9 178 79.6 178.8 79.6z"/><path class="st4" d="M211.8 76.5h-8.1c-0.9 0-1.6 0.7-1.6 1.5 0 0.9 0.7 1.5 1.6 1.5h8.1c0.9 0 1.6-0.7 1.6-1.5C213.4 77.2 212.7 76.5 211.8 76.5z"/><path class="st4" d="M178.8 74.3h18.1c0.9 0 1.6-0.7 1.6-1.5 0-0.9-0.7-1.5-1.6-1.5h-18.1c-0.9 0-1.6 0.7-1.6 1.5C177.3 73.6 178 74.3 178.8 74.3z"/><path class="st4" d="M211.8 71.2h-8.1c-0.9 0-1.6 0.7-1.6 1.5 0 0.9 0.7 1.5 1.6 1.5h8.1c0.9 0 1.6-0.7 1.6-1.5C213.4 71.9 212.7 71.2 211.8 71.2z"/><path class="st4" d="M205.3 52.1c-0.2-0.4-0.6-0.6-1-0.7 -0.4 0-0.9 0.2-1.1 0.5l-6.5 8.5 -5.7-5.5c-0.2-0.2-0.6-0.4-0.9-0.4 -0.3 0-0.7 0.2-0.9 0.4L177.4 67h36.1L205.3 52.1z"/><path class="st4" d="M87.7 378.6c-1.8 0-3.2 1.5-3.2 3.2v13c0 1.8 1.5 3.2 3.2 3.2s3.2-1.5 3.2-3.2v-13C91 380.1 89.5 378.6 87.7 378.6zM48.9 378.6c-1.8 0-3.2 1.5-3.2 3.2v13c0 1.8 1.5 3.2 3.2 3.2s3.2-1.5 3.2-3.2v-13C52.1 380.1 50.7 378.6 48.9 378.6zM53.7 399.7c0 2.7 2.2 4.9 4.9 4.9h1.6v6.5c0 1.8 1.5 3.2 3.2 3.2 1.8 0 3.2-1.5 3.2-3.2v-6.5h3.2v6.5c0 1.8 1.5 3.2 3.2 3.2s3.2-1.5 3.2-3.2v-6.5H78c2.7 0 4.9-2.2 4.9-4.9v-17.8H53.7V399.7zM74.3 367l2-3.9c0.1-0.2 0-0.4-0.2-0.5 -0.2-0.1-0.4 0-0.5 0.2l-2.1 4c-1.6-0.6-3.4-1-5.3-1 -1.9 0-3.6 0.3-5.3 1l-2.1-4c-0.1-0.2-0.3-0.3-0.5-0.2 -0.2 0.1-0.3 0.3-0.2 0.5l2 3.9c-4.6 2.1-7.9 6.5-8.5 11.7h29C82.2 373.4 78.9 369 74.3 367zM61.8 376.1c-1.3 0-2.3-1.1-2.3-2.3s1.1-2.3 2.3-2.3c1.3 0 2.3 1.1 2.3 2.3C64.2 375.1 63.1 376.1 61.8 376.1zM74.8 376.1c-1.3 0-2.3-1.1-2.3-2.3s1.1-2.3 2.3-2.3 2.3 1.1 2.3 2.3S76.1 376.1 74.8 376.1z"/><path class="st4" d="M121 496.1l-4-4c-14.9-13.2-24.7-22.1-24.7-33 0-8.9 6.9-15.8 15.8-15.8 4.9 0 9.7 2.3 12.9 6 3.2-3.7 8-6 12.9-6 8.9 0 15.8 6.9 15.8 15.8 0 10.9-9.7 19.8-24.7 33L121 496.1z"/><path class="st4" d="M216.7 510.3v-5.1h-6.4l1.3-10.2h-5.1l-1.3 10.2H195l1.3-10.2h-5.1l-1.3 10.2H181v5.1h8.3l-1.3 10.2h-7v5.1h6.4l-1.3 10.2h5.1l1.3-10.2h10.2l-1.3 10.2h5.1l1.3-10.2h8.9v-5.1h-8.3l1.3-10.2H216.7zM203.3 520.5h-10.2l1.3-10.2h10.2L203.3 520.5z"/><path class="st4" d="M388.7 481.3h-26.2c-2.2 0-4 1.8-4 4V536c0 2.2 1.8 4 4 4h26.2c2.2 0 4-1.8 4-4v-50.8C392.7 483 390.9 481.3 388.7 481.3zM371.5 484.1h8.4c0.3 0 0.5 0.2 0.5 0.5 0 0.3-0.2 0.5-0.5 0.5h-8.4c-0.3 0-0.5-0.2-0.5-0.5C371 484.3 371.2 484.1 371.5 484.1zM375.7 538c-1.1 0-2-0.9-2-2 0-1.1 0.9-2 2-2 1.1 0 2 0.9 2 2C377.6 537.1 376.7 538 375.7 538zM389.9 532.6h-28.6v-45.1h28.6V532.6z"/><path class="st4" d="M469.5 133.4c-2.5 0-4.6 1.2-6.1 3l-13.2-6.8c0.2-0.6 0.3-1.3 0.3-2 0-0.8-0.1-1.5-0.4-2.2l13.1-6.7c1.4 1.9 3.6 3.1 6.2 3.1 4.3 0 7.8-3.5 7.8-7.8 0-4.3-3.5-7.8-7.8-7.8 -4.3 0-7.8 3.5-7.8 7.8 0 0.7 0.1 1.4 0.3 2l-13.2 6.8c-1.4-1.8-3.6-3-6.1-3 -4.3 0-7.8 3.5-7.8 7.8s3.5 7.8 7.8 7.8c2.5 0 4.8-1.2 6.2-3.1l13.1 6.7c-0.2 0.7-0.4 1.4-0.4 2.2 0 4.3 3.5 7.8 7.8 7.8 4.3 0 7.8-3.5 7.8-7.8C477.3 136.9 473.8 133.4 469.5 133.4z"/><path class="st4" d="M40.4 192c-0.8 0.3-1.4 1.1-1.6 2 -0.1 0.9 0.3 1.8 1 2.3l8 5.8 28.4-22.3 -25.1 24.7 10.9 7.9c0.7 0.5 1.6 0.7 2.4 0.4 0.8-0.3 1.5-0.9 1.8-1.7l11.7-32c0.1-0.3 0-0.7-0.2-0.9 -0.2-0.2-0.6-0.3-0.9-0.2L40.4 192z"/><path class="st4" d="M45.9 204l0.1 0.4 1.6 8.5c0.1 0.6 0.5 1.2 1.1 1.4 0.6 0.3 1.3 0.2 1.8-0.1 2.2-1.4 5-3.2 4.9-3.3L45.9 204z"/><path class="st4" d="M383.3 508.3l-10.9-6.3c-0.4-0.3-1 0.1-1 0.6v12.6c0 0.5 0.6 0.8 1 0.6l10.9-6.3C383.8 509.2 383.8 508.6 383.3 508.3z"/></svg>