<svg xmlns="http://www.w3.org/2000/svg" version="1.1" x="0" y="0" width="794.4" height="348.1" viewBox="0 0 794.4 348.1" xml:space="preserve"><style type="text/css">
	.st0{fill:none;stroke:#ABABAB;stroke-width:3;stroke-linejoin:round;stroke-miterlimit:10;}
	.st1{display:none;}
	.st2{display:inline;fill:#ABABAB;}
	.st3{display:inline;opacity:0.8;fill:#ABABAB;}
	.st4{display:inline;}
	.st5{fill:#FFFFFF;stroke:#ABABAB;stroke-width:3;stroke-miterlimit:10;}
	.st6{fill:none;stroke:#ABABAB;stroke-width:3;stroke-linecap:round;stroke-linejoin:round;stroke-miterlimit:10;}
	.st7{fill:#ABABAB;stroke:#ABABAB;stroke-width:2;stroke-miterlimit:10;}
	.st8{fill:#428BCA;}
	.st9{fill:none;stroke:#AAAAAA;stroke-width:3;stroke-miterlimit:10;}
	.st10{fill:#AAAAAA;}
	.st11{opacity:0.5;}
	.st12{fill:#DC4C3F;}
	.st13{fill:#FFFFFF;}
</style><path class="st0" d="M71.1 64.7"/><polyline class="st0" points="70.1 78.8 164.6 78.8 244 115.7 259 115.7 "/><path class="st0" d="M71.3 188.6"/><g class="st1"><path class="st2" d="M393.9 103h-82.4c-0.7 0-1.3-0.4-1.6-1s-0.2-1.3 0.2-1.8L330 76.7c0.3-0.4 0.8-0.6 1.3-0.6h42.9c0.5 0 1 0.2 1.3 0.6l19.8 23.4c0.4 0.5 0.5 1.2 0.2 1.8S394.6 103 393.9 103zM315.2 99.5h75l-16.9-20h-41.3L315.2 99.5z"/><polygon class="st2" points="352.7 152.8 310.2 102.4 312.8 100.2 352.7 147.5 392.6 100.2 395.2 102.4 "/><path class="st2" d="M352.7 151.9L352.7 151.9c-0.7 0-1.4-0.5-1.6-1.1l-17.2-48.9c-0.2-0.5-0.1-1.1 0.2-1.6l17.2-23.4c0.6-0.9 2.1-0.9 2.8 0l17.2 23.4c0.3 0.5 0.4 1.1 0.2 1.6l-17.2 48.9C354.1 151.4 353.4 151.9 352.7 151.9zM337.4 101.5l15.3 43.5 15.3-43.5 -15.3-20.8L337.4 101.5z"/><rect x="321.5" y="87.8" transform="matrix(-0.1759 -0.9844 0.9844 -0.1759 303.8493 433.4546)" class="st2" width="23.8" height="3.4"/><rect x="370.3" y="77.6" transform="matrix(-0.9844 -0.176 0.176 -0.9844 722.515 243.1667)" class="st2" width="3.4" height="23.8"/><path class="st2" d="M477 254.6c-1.1 0-2.1-0.3-3.1-0.8l-9.7-5.8c-1.5-0.8-0.7-1.1-0.3-1.3 1.9-0.7 2.3-0.8 4.4-2 0.2-0.1 0.5-0.1 0.7 0.1l7.5 4.4c0.3 0.2 0.7 0.2 0.9 0l29.1-16.8c0.3-0.2 0.4-0.5 0.4-0.8V198c0-0.3-0.2-0.6-0.5-0.8l-29.1-16.8c-0.3-0.2-0.6-0.2-0.9 0l-29.1 16.8c-0.3 0.2-0.5 0.5-0.5 0.8v33.6c0 0.3 0.2 0.6 0.5 0.8l8 4.6c4.3 2.2 7-0.4 7-2.9v-33.2c0-0.5 0.4-0.8 0.8-0.8h3.7c0.5 0 0.8 0.4 0.8 0.8v33.2c0 5.8-3.1 9.1-8.6 9.1 -1.7 0-3 0-6.7-1.8l-7.6-4.4c-1.9-1.1-3.1-3.1-3.1-5.3V198c0-2.2 1.2-4.2 3.1-5.3l29.1-16.8c1.8-1 4.3-1 6.1 0l29.1 16.8c1.9 1.1 3.1 3.1 3.1 5.3v33.6c0 2.2-1.2 4.2-3.1 5.3l-29.1 16.8C479.2 254.3 478.1 254.6 477 254.6zM500.6 221.5c0-6.3-4.3-8-13.2-9.2 -9.1-1.2-10-1.8-10-3.9 0-1.7 0.8-4.1 7.5-4.1 6 0 8.2 1.3 9.1 5.3 0.1 0.4 0.4 0.7 0.8 0.7h3.8c0.2 0 0.5-0.1 0.6-0.3 0.2-0.2 0.2-0.4 0.2-0.6 -0.6-7-5.2-10.2-14.5-10.2 -8.3 0-13.3 3.5-13.3 9.4 0 6.4 4.9 8.1 12.9 8.9 9.5 0.9 10.3 2.3 10.3 4.2 0 3.3-2.6 4.6-8.8 4.6 -7.7 0-9.4-1.9-10-5.8 -0.1-0.4-0.4-0.7-0.8-0.7h-3.8c-0.5 0-0.8 0.4-0.8 0.8 0 4.9 2.7 10.8 15.4 10.8C495.3 231.4 500.6 227.8 500.6 221.5zM513.4 187.3v0.6h1.6v4.3h0.7v-4.3h1.6v-0.6H513.4zM517.9 192.2h0.6v-2.9c0-0.1 0-0.3 0-0.5 0-0.2 0-0.4 0-0.5v-0.1l1.4 4.1h0.7l1.4-4.1c0 0.3 0 0.5 0 0.7 0 0.2 0 0.4 0 0.5v2.9h0.6v-4.9h-0.9l-1.4 4.1 -1.4-4.1h-0.9V192.2zM327.3 229.6c-3.2 0-6.2 0.3-8.9 0.8 -7.9 1.4-9.3 4.3-9.3 9.7v7.1h18.7v2.4h-18.7 -7c-5.4 0-10.2 3.3-11.7 9.5 -1.7 7.1-1.8 11.5 0 19 1.3 5.5 4.5 9.5 9.9 9.5h6.4v-8.5c0-6.2 5.3-11.6 11.7-11.6H337c5.2 0 9.3-4.3 9.3-9.5v-17.8c0-5.1-4.3-8.9-9.3-9.7C333.8 229.9 330.5 229.6 327.3 229.6zM317.2 235.3c1.9 0 3.5 1.6 3.5 3.6 0 2-1.6 3.5-3.5 3.5 -1.9 0-3.5-1.6-3.5-3.5C313.7 236.9 315.3 235.3 317.2 235.3zM348.7 249.6v8.3c0 6.4-5.4 11.8-11.7 11.8h-18.6c-5.1 0-9.3 4.4-9.3 9.5v17.8c0 5.1 4.4 8 9.3 9.5 5.9 1.7 11.6 2 18.6 0 4.7-1.4 9.3-4.1 9.3-9.5v-7.1h-18.6v-2.4h18.6 9.3c5.4 0 7.4-3.8 9.3-9.5 1.9-5.8 1.9-11.5 0-19 -1.3-5.4-3.9-9.5-9.3-9.5H348.7zM338.2 294.5c1.9 0 3.5 1.6 3.5 3.5 0 2-1.6 3.6-3.5 3.6 -1.9 0-3.5-1.6-3.5-3.6C334.7 296.1 336.3 294.5 338.2 294.5z"/></g><g class="st1"><g class="st4"><path class="st5" d="M45.6 178.7v2.9h-28v-2.9c0-0.6 0.5-1.1 1.1-1.1h6.9v-2.8c1.9 0.5 3.9 0.8 6 0.8 2.1 0 4.1-0.3 6-0.8v2.8h6.9C45.1 177.5 45.6 178 45.6 178.7zM51.6 153.6c0 11-8.9 20-20 20 -11 0-20-8.9-20-20 0-0.3 0-0.6 0-0.9 0-0.1 0-0.2 0-0.3 0-0.2 0-0.4 0-0.6 0-0.1 0-0.2 0-0.3 0-0.2 0-0.4 0.1-0.6 0-0.1 0-0.2 0-0.3 0-0.2 0.1-0.5 0.1-0.7 0-0.1 0-0.1 0-0.2 0.1-0.3 0.1-0.6 0.2-0.9 0-0.1 0-0.2 0.1-0.3 0.1-0.2 0.1-0.4 0.2-0.6 0-0.1 0.1-0.2 0.1-0.3 0.1-0.2 0.1-0.4 0.2-0.5 0-0.1 0.1-0.2 0.1-0.3 0.1-0.2 0.1-0.4 0.2-0.6 0-0.1 0.1-0.2 0.1-0.3 0.1-0.3 0.2-0.5 0.4-0.8 0-0.1 0.1-0.1 0.1-0.2 0.1-0.2 0.2-0.4 0.3-0.6 0.1-0.1 0.1-0.2 0.2-0.3 0.1-0.2 0.2-0.3 0.3-0.5 0.1-0.1 0.1-0.2 0.2-0.3 0.1-0.1 0.2-0.3 0.3-0.4 0.1-0.1 0.1-0.2 0.2-0.3 0.1-0.2 0.2-0.3 0.3-0.5 0.1-0.1 0.2-0.2 0.3-0.4 0.1-0.2 0.3-0.4 0.4-0.5 0.1-0.1 0.2-0.2 0.3-0.3 0.1-0.1 0.2-0.2 0.3-0.4 0.1-0.1 0.2-0.2 0.3-0.3 0.1-0.1 0.2-0.2 0.3-0.3 0.1-0.1 0.2-0.2 0.3-0.3 0.1-0.1 0.2-0.2 0.3-0.3 0.1-0.1 0.2-0.2 0.3-0.3 0.2-0.2 0.4-0.4 0.6-0.5 0.1-0.1 0.2-0.2 0.3-0.3 0.1-0.1 0.2-0.2 0.3-0.3 0.1-0.1 0.2-0.2 0.4-0.3 0.1-0.1 0.2-0.2 0.3-0.2 0.1-0.1 0.3-0.2 0.4-0.3 0.1-0.1 0.2-0.1 0.3-0.2 0.1-0.1 0.3-0.2 0.4-0.3 0.1-0.1 0.2-0.1 0.3-0.2 0.3-0.1 0.5-0.3 0.8-0.4 0.1-0.1 0.2-0.1 0.3-0.2 0.1-0.1 0.3-0.1 0.5-0.2 0.1-0.1 0.2-0.1 0.3-0.2 0.2-0.1 0.3-0.1 0.5-0.2 0.1 0 0.2-0.1 0.3-0.1 0.2-0.1 0.3-0.1 0.5-0.2 0.1 0 0.2-0.1 0.3-0.1 2-0.7 4.2-1 6.4-1 2.2 0 4.4 0.4 6.4 1 0.1 0 0.2 0.1 0.3 0.1 0.2 0.1 0.3 0.1 0.5 0.2 0.1 0 0.2 0.1 0.4 0.1 0.2 0.1 0.3 0.1 0.5 0.2 0.1 0.1 0.2 0.1 0.3 0.2 0.2 0.1 0.3 0.1 0.4 0.2 0.1 0.1 0.2 0.1 0.3 0.2 0.3 0.1 0.5 0.3 0.8 0.4 0.1 0.1 0.2 0.1 0.4 0.2 0.1 0.1 0.3 0.2 0.4 0.2 0.1 0.1 0.2 0.1 0.3 0.2 0.1 0.1 0.3 0.2 0.4 0.3 0.1 0.1 0.2 0.2 0.3 0.2 0.1 0.1 0.2 0.2 0.4 0.3 0.1 0.1 0.2 0.2 0.3 0.3 0.1 0.1 0.2 0.2 0.3 0.3 0.2 0.2 0.4 0.3 0.6 0.5 0.1 0.1 0.2 0.2 0.3 0.3 0.1 0.1 0.2 0.2 0.3 0.3 0.1 0.1 0.2 0.2 0.3 0.3 0.1 0.1 0.2 0.2 0.3 0.3 0.1 0.1 0.2 0.2 0.3 0.3 0.1 0.1 0.2 0.2 0.3 0.4 0.1 0.1 0.2 0.2 0.3 0.3 0.1 0.2 0.3 0.4 0.4 0.5 0.1 0.1 0.2 0.2 0.2 0.3 0.1 0.2 0.2 0.3 0.4 0.5 0.1 0.1 0.1 0.2 0.2 0.3 0.1 0.1 0.2 0.3 0.3 0.4 0.1 0.1 0.1 0.2 0.2 0.3 0.1 0.2 0.2 0.3 0.3 0.5 0.1 0.1 0.1 0.2 0.2 0.3 0.1 0.2 0.2 0.4 0.3 0.6 0 0.1 0.1 0.1 0.1 0.2 0.1 0.3 0.2 0.5 0.4 0.8 0 0.1 0.1 0.2 0.1 0.3 0.1 0.2 0.1 0.4 0.2 0.6 0 0.1 0.1 0.2 0.1 0.3 0.1 0.2 0.1 0.4 0.2 0.5 0 0.1 0.1 0.2 0.1 0.3 0.1 0.2 0.1 0.4 0.2 0.6 0 0.1 0 0.2 0.1 0.3 0.1 0.3 0.1 0.6 0.2 0.9 0 0.1 0 0.1 0 0.2 0 0.2 0.1 0.5 0.1 0.7 0 0.1 0 0.2 0 0.3 0 0.2 0.1 0.4 0.1 0.6 0 0.1 0 0.2 0 0.3 0 0.2 0 0.4 0 0.6 0 0.1 0 0.2 0 0.3C51.6 152.9 51.6 153.2 51.6 153.6zM43.6 153.6c0-6.6-5.4-12-12-12s-12 5.4-12 12 5.4 12 12 12C38.2 165.5 43.6 160.2 43.6 153.6zM31.6 136.6c-1.6 0-3.2 0.2-4.7 0.7 1.1 1.4 2.8 2.3 4.7 2.3 1.9 0 3.6-0.9 4.7-2.3C34.8 136.8 33.2 136.6 31.6 136.6zM31.6 145.6c-1.3 0-2.5 0.3-3.6 0.9 0.7 0.5 1.2 1.4 1.2 2.4 0 1.7-1.3 3-3 3 -0.9 0-1.6-0.4-2.2-1 -0.3 0.8-0.5 1.7-0.5 2.7 0 4.4 3.6 8 8 8 4.4 0 8-3.6 8-8C39.6 149.1 36 145.6 31.6 145.6z"/></g><g class="st4"><path class="st5" d="M45.6 99.7v2.9h-28v-2.9c0-0.6 0.5-1.1 1.1-1.1h6.9v-2.8c1.9 0.5 3.9 0.8 6 0.8 2.1 0 4.1-0.3 6-0.8v2.8h6.9C45.1 98.6 45.6 99.1 45.6 99.7zM51.6 74.6c0 11-8.9 20-20 20 -11 0-20-8.9-20-20 0-0.3 0-0.6 0-0.9 0-0.1 0-0.2 0-0.3 0-0.2 0-0.4 0-0.6 0-0.1 0-0.2 0-0.3 0-0.2 0-0.4 0.1-0.6 0-0.1 0-0.2 0-0.3 0-0.2 0.1-0.5 0.1-0.7 0-0.1 0-0.1 0-0.2 0.1-0.3 0.1-0.6 0.2-0.9 0-0.1 0-0.2 0.1-0.3 0.1-0.2 0.1-0.4 0.2-0.6 0-0.1 0.1-0.2 0.1-0.3 0.1-0.2 0.1-0.4 0.2-0.5 0-0.1 0.1-0.2 0.1-0.3 0.1-0.2 0.1-0.4 0.2-0.6 0-0.1 0.1-0.2 0.1-0.3 0.1-0.3 0.2-0.5 0.4-0.8 0-0.1 0.1-0.1 0.1-0.2 0.1-0.2 0.2-0.4 0.3-0.6 0.1-0.1 0.1-0.2 0.2-0.3 0.1-0.2 0.2-0.3 0.3-0.5 0.1-0.1 0.1-0.2 0.2-0.3 0.1-0.1 0.2-0.3 0.3-0.4 0.1-0.1 0.1-0.2 0.2-0.3 0.1-0.2 0.2-0.3 0.3-0.5 0.1-0.1 0.2-0.2 0.3-0.4 0.1-0.2 0.3-0.4 0.4-0.5 0.1-0.1 0.2-0.2 0.3-0.3 0.1-0.1 0.2-0.2 0.3-0.4 0.1-0.1 0.2-0.2 0.3-0.3 0.1-0.1 0.2-0.2 0.3-0.3 0.1-0.1 0.2-0.2 0.3-0.3 0.1-0.1 0.2-0.2 0.3-0.3 0.1-0.1 0.2-0.2 0.3-0.3 0.2-0.2 0.4-0.4 0.6-0.5 0.1-0.1 0.2-0.2 0.3-0.3 0.1-0.1 0.2-0.2 0.3-0.3 0.1-0.1 0.2-0.2 0.4-0.3 0.1-0.1 0.2-0.2 0.3-0.2 0.1-0.1 0.3-0.2 0.4-0.3 0.1-0.1 0.2-0.1 0.3-0.2 0.1-0.1 0.3-0.2 0.4-0.3 0.1-0.1 0.2-0.1 0.3-0.2 0.3-0.1 0.5-0.3 0.8-0.4 0.1-0.1 0.2-0.1 0.3-0.2 0.1-0.1 0.3-0.1 0.5-0.2 0.1-0.1 0.2-0.1 0.3-0.2 0.2-0.1 0.3-0.1 0.5-0.2 0.1 0 0.2-0.1 0.3-0.1 0.2-0.1 0.3-0.1 0.5-0.2 0.1 0 0.2-0.1 0.3-0.1 2-0.7 4.2-1 6.4-1 2.2 0 4.4 0.4 6.4 1 0.1 0 0.2 0.1 0.3 0.1 0.2 0.1 0.3 0.1 0.5 0.2 0.1 0 0.2 0.1 0.4 0.1 0.2 0.1 0.3 0.1 0.5 0.2 0.1 0.1 0.2 0.1 0.3 0.2 0.2 0.1 0.3 0.1 0.4 0.2 0.1 0.1 0.2 0.1 0.3 0.2 0.3 0.1 0.5 0.3 0.8 0.4 0.1 0.1 0.2 0.1 0.4 0.2 0.1 0.1 0.3 0.2 0.4 0.2 0.1 0.1 0.2 0.1 0.3 0.2 0.1 0.1 0.3 0.2 0.4 0.3 0.1 0.1 0.2 0.2 0.3 0.2 0.1 0.1 0.2 0.2 0.4 0.3 0.1 0.1 0.2 0.2 0.3 0.3 0.1 0.1 0.2 0.2 0.3 0.3 0.2 0.2 0.4 0.3 0.6 0.5 0.1 0.1 0.2 0.2 0.3 0.3 0.1 0.1 0.2 0.2 0.3 0.3 0.1 0.1 0.2 0.2 0.3 0.3 0.1 0.1 0.2 0.2 0.3 0.3 0.1 0.1 0.2 0.2 0.3 0.3 0.1 0.1 0.2 0.2 0.3 0.4 0.1 0.1 0.2 0.2 0.3 0.3 0.1 0.2 0.3 0.4 0.4 0.5 0.1 0.1 0.2 0.2 0.2 0.3 0.1 0.2 0.2 0.3 0.4 0.5 0.1 0.1 0.1 0.2 0.2 0.3 0.1 0.1 0.2 0.3 0.3 0.4 0.1 0.1 0.1 0.2 0.2 0.3 0.1 0.2 0.2 0.3 0.3 0.5 0.1 0.1 0.1 0.2 0.2 0.3 0.1 0.2 0.2 0.4 0.3 0.6 0 0.1 0.1 0.1 0.1 0.2 0.1 0.3 0.2 0.5 0.4 0.8 0 0.1 0.1 0.2 0.1 0.3 0.1 0.2 0.1 0.4 0.2 0.6 0 0.1 0.1 0.2 0.1 0.3 0.1 0.2 0.1 0.4 0.2 0.5 0 0.1 0.1 0.2 0.1 0.3 0.1 0.2 0.1 0.4 0.2 0.6 0 0.1 0 0.2 0.1 0.3 0.1 0.3 0.1 0.6 0.2 0.9 0 0.1 0 0.1 0 0.2 0 0.2 0.1 0.5 0.1 0.7 0 0.1 0 0.2 0 0.3 0 0.2 0.1 0.4 0.1 0.6 0 0.1 0 0.2 0 0.3 0 0.2 0 0.4 0 0.6 0 0.1 0 0.2 0 0.3C51.6 74 51.6 74.3 51.6 74.6zM43.6 74.6c0-6.6-5.4-12-12-12s-12 5.4-12 12c0 6.6 5.4 12 12 12C38.2 86.6 43.6 81.2 43.6 74.6zM31.6 57.6c-1.6 0-3.2 0.2-4.7 0.7 1.1 1.4 2.8 2.3 4.7 2.3 1.9 0 3.6-0.9 4.7-2.3C34.8 57.8 33.2 57.6 31.6 57.6zM31.6 66.6c-1.3 0-2.5 0.3-3.6 0.9 0.7 0.5 1.2 1.4 1.2 2.4 0 1.7-1.3 3-3 3 -0.9 0-1.6-0.4-2.2-1 -0.3 0.8-0.5 1.7-0.5 2.7 0 4.4 3.6 8 8 8 4.4 0 8-3.6 8-8C39.6 70.2 36 66.6 31.6 66.6z"/></g><g class="st4"><path class="st5" d="M45.6 256.5v2.9h-28v-2.9c0-0.6 0.5-1.1 1.1-1.1h6.9v-2.8c1.9 0.5 3.9 0.8 6 0.8 2.1 0 4.1-0.3 6-0.8v2.8h6.9C45.1 255.4 45.6 255.9 45.6 256.5zM51.6 231.4c0 11-8.9 20-20 20 -11 0-20-8.9-20-20 0-0.3 0-0.6 0-0.9 0-0.1 0-0.2 0-0.3 0-0.2 0-0.4 0-0.6 0-0.1 0-0.2 0-0.3 0-0.2 0-0.4 0.1-0.6 0-0.1 0-0.2 0-0.3 0-0.2 0.1-0.5 0.1-0.7 0-0.1 0-0.1 0-0.2 0.1-0.3 0.1-0.6 0.2-0.9 0-0.1 0-0.2 0.1-0.3 0.1-0.2 0.1-0.4 0.2-0.6 0-0.1 0.1-0.2 0.1-0.3 0.1-0.2 0.1-0.4 0.2-0.5 0-0.1 0.1-0.2 0.1-0.3 0.1-0.2 0.1-0.4 0.2-0.6 0-0.1 0.1-0.2 0.1-0.3 0.1-0.3 0.2-0.5 0.4-0.8 0-0.1 0.1-0.1 0.1-0.2 0.1-0.2 0.2-0.4 0.3-0.6 0.1-0.1 0.1-0.2 0.2-0.3 0.1-0.2 0.2-0.3 0.3-0.5 0.1-0.1 0.1-0.2 0.2-0.3 0.1-0.1 0.2-0.3 0.3-0.4 0.1-0.1 0.1-0.2 0.2-0.3 0.1-0.2 0.2-0.3 0.3-0.5 0.1-0.1 0.2-0.2 0.3-0.4 0.1-0.2 0.3-0.4 0.4-0.5 0.1-0.1 0.2-0.2 0.3-0.3 0.1-0.1 0.2-0.2 0.3-0.4 0.1-0.1 0.2-0.2 0.3-0.3 0.1-0.1 0.2-0.2 0.3-0.3 0.1-0.1 0.2-0.2 0.3-0.3 0.1-0.1 0.2-0.2 0.3-0.3 0.1-0.1 0.2-0.2 0.3-0.3 0.2-0.2 0.4-0.4 0.6-0.5 0.1-0.1 0.2-0.2 0.3-0.3 0.1-0.1 0.2-0.2 0.3-0.3 0.1-0.1 0.2-0.2 0.4-0.3 0.1-0.1 0.2-0.2 0.3-0.2 0.1-0.1 0.3-0.2 0.4-0.3 0.1-0.1 0.2-0.1 0.3-0.2 0.1-0.1 0.3-0.2 0.4-0.3 0.1-0.1 0.2-0.1 0.3-0.2 0.3-0.1 0.5-0.3 0.8-0.4 0.1-0.1 0.2-0.1 0.3-0.2 0.1-0.1 0.3-0.1 0.5-0.2 0.1-0.1 0.2-0.1 0.3-0.2 0.2-0.1 0.3-0.1 0.5-0.2 0.1 0 0.2-0.1 0.3-0.1 0.2-0.1 0.3-0.1 0.5-0.2 0.1 0 0.2-0.1 0.3-0.1 2-0.7 4.2-1 6.4-1 2.2 0 4.4 0.4 6.4 1 0.1 0 0.2 0.1 0.3 0.1 0.2 0.1 0.3 0.1 0.5 0.2 0.1 0 0.2 0.1 0.4 0.1 0.2 0.1 0.3 0.1 0.5 0.2 0.1 0.1 0.2 0.1 0.3 0.2 0.2 0.1 0.3 0.1 0.4 0.2 0.1 0.1 0.2 0.1 0.3 0.2 0.3 0.1 0.5 0.3 0.8 0.4 0.1 0.1 0.2 0.1 0.4 0.2 0.1 0.1 0.3 0.2 0.4 0.2 0.1 0.1 0.2 0.1 0.3 0.2 0.1 0.1 0.3 0.2 0.4 0.3 0.1 0.1 0.2 0.2 0.3 0.2 0.1 0.1 0.2 0.2 0.4 0.3 0.1 0.1 0.2 0.2 0.3 0.3 0.1 0.1 0.2 0.2 0.3 0.3 0.2 0.2 0.4 0.3 0.6 0.5 0.1 0.1 0.2 0.2 0.3 0.3 0.1 0.1 0.2 0.2 0.3 0.3 0.1 0.1 0.2 0.2 0.3 0.3 0.1 0.1 0.2 0.2 0.3 0.3 0.1 0.1 0.2 0.2 0.3 0.3 0.1 0.1 0.2 0.2 0.3 0.4 0.1 0.1 0.2 0.2 0.3 0.3 0.1 0.2 0.3 0.4 0.4 0.5 0.1 0.1 0.2 0.2 0.2 0.3 0.1 0.2 0.2 0.3 0.4 0.5 0.1 0.1 0.1 0.2 0.2 0.3 0.1 0.1 0.2 0.3 0.3 0.4 0.1 0.1 0.1 0.2 0.2 0.3 0.1 0.2 0.2 0.3 0.3 0.5 0.1 0.1 0.1 0.2 0.2 0.3 0.1 0.2 0.2 0.4 0.3 0.6 0 0.1 0.1 0.1 0.1 0.2 0.1 0.3 0.2 0.5 0.4 0.8 0 0.1 0.1 0.2 0.1 0.3 0.1 0.2 0.1 0.4 0.2 0.6 0 0.1 0.1 0.2 0.1 0.3 0.1 0.2 0.1 0.4 0.2 0.5 0 0.1 0.1 0.2 0.1 0.3 0.1 0.2 0.1 0.4 0.2 0.6 0 0.1 0 0.2 0.1 0.3 0.1 0.3 0.1 0.6 0.2 0.9 0 0.1 0 0.1 0 0.2 0 0.2 0.1 0.5 0.1 0.7 0 0.1 0 0.2 0 0.3 0 0.2 0.1 0.4 0.1 0.6 0 0.1 0 0.2 0 0.3 0 0.2 0 0.4 0 0.6 0 0.1 0 0.2 0 0.3C51.6 230.8 51.6 231.1 51.6 231.4zM43.6 231.4c0-6.6-5.4-12-12-12s-12 5.4-12 12c0 6.6 5.4 12 12 12C38.2 243.4 43.6 238.1 43.6 231.4zM31.6 214.4c-1.6 0-3.2 0.2-4.7 0.7 1.1 1.4 2.8 2.3 4.7 2.3 1.9 0 3.6-0.9 4.7-2.3C34.8 214.7 33.2 214.4 31.6 214.4zM31.6 223.4c-1.3 0-2.5 0.3-3.6 0.9 0.7 0.5 1.2 1.4 1.2 2.4 0 1.7-1.3 3-3 3 -0.9 0-1.6-0.4-2.2-1 -0.3 0.8-0.5 1.7-0.5 2.7 0 4.4 3.6 8 8 8 4.4 0 8-3.6 8-8C39.6 227 36 223.4 31.6 223.4z"/></g></g><line class="st0" x1="68.6" y1="157.8" x2="260.6" y2="157.8"/><line class="st0" x1="568.6" y1="161.8" x2="653.6" y2="161.8"/><path class="st0" d="M310.1 223.5V92.8c0-10 3.5-13.5 13.4-13.5h196.2c9.8 0 13.4 3.6 13.4 13.5v130.7M550.8 235.8c0 4.5-3.6 8.9-8.1 8.9H300.3c-4.5 0-8.1-4.5-8.1-8.9v-13.4h8.9 102.5l8.9 8.9h17.8l8.9-8.9h102.5 8.9V235.8z"/><line class="st6" x1="424.5" y1="177.9" x2="489.7" y2="177.9"/><line class="st6" x1="424.5" y1="167" x2="489.7" y2="167"/><line class="st6" x1="424.5" y1="153.1" x2="489.7" y2="153.1"/><line class="st6" x1="425" y1="140.2" x2="490.1" y2="140.2"/><line class="st6" x1="424.5" y1="126.4" x2="489.7" y2="126.4"/><line class="st6" x1="424.5" y1="115.5" x2="489.7" y2="115.5"/><path class="st7" d="M365.7 178.4c-4.6 0-9-3.8-9-9.7v-14.9c0-2.7-1.2-5-3.8-5v-3.6c2.6 0 3.8-2.3 3.8-5v-14.8c0-6 4.4-9.8 9-9.8h4.5v4h-4.5c-2.5 0-4.8 2.3-4.8 5.7v15.3c0 3-0.9 5.4-3.3 6.4 2.4 1 3.3 3.3 3.3 6.4v15.3c0 3.3 2.2 5.8 4.8 5.8h4.5v4H365.7z"/><path class="st8" d="M757.3 64.5v24c5.9 0.8 11.6 2.2 17.1 4.2 5.5 2 9.5 3.9 12.2 5.6l3.9 2.4 -12.4 24.5c-1-0.7-2.4-1.5-4.2-2.5 -1.8-1-5.1-2.4-9.9-4.1 -4.9-1.7-9.3-2.6-13.4-2.6 -5.3 0-9.3 1-12.1 3.1 -2.7 2.1-4.1 5.1-4.1 8.9 0 1.8 0.6 3.5 1.8 5.2 1.2 1.6 3.3 3.3 6.5 5.1 3.1 1.8 5.8 3.1 7.9 4.1 2.2 1 5.8 2.5 10.9 4.7 0.2 0.1 0.4 0.2 0.6 0.3 0.2 0.1 0.4 0.1 0.6 0.3 8.7 3.7 16.2 8.8 22.4 15.2 6.2 6.4 9.4 13.7 9.4 21.8 0 12.5-3.4 22.2-10.1 29.1 -6.7 6.9-15.7 11.3-26.9 13.3v24.7H739v-23.5c-5.4-0.3-10.8-1.2-16-2.5 -5.2-1.3-9.6-2.8-13.1-4.5 -3.5-1.7-6.7-3.4-9.4-5 -2.8-1.6-4.8-3-6.2-4.2l-1.9-1.7 15.5-25.8c1.4 1.1 3.2 2.5 5.4 4.2 2.3 1.7 6.3 4 12.2 6.8 5.9 2.8 11.1 4.3 15.6 4.3 12.9 0 19.4-4.4 19.4-13.3 0-1.9-0.5-3.7-1.4-5.4 -1-1.6-2.6-3.2-4.9-4.8 -2.3-1.5-4.4-2.8-6.2-3.7 -1.8-1-4.7-2.4-8.8-4.2 -4-1.9-7.1-3.3-9.1-4.3 -8.2-4.1-14.5-9.2-19-15.2 -4.5-6.1-6.8-12.6-6.8-19.6 0-10.1 3.4-18.8 10.1-26.1 6.7-7.3 14.9-12 24.6-14.2V64.5H757.3z"/><path class="st9" d="M70.1 76"/><circle class="st10" cx="70.1" cy="78.8" r="3.5"/><circle class="st10" cx="71.1" cy="157.8" r="3.5"/><line class="st0" x1="262.1" y1="156.8" x2="256" y2="162.8"/><line class="st0" x1="262.1" y1="158.9" x2="256" y2="152.8"/><line class="st0" x1="262.1" y1="114.7" x2="256" y2="120.8"/><line class="st0" x1="262.1" y1="116.9" x2="256" y2="110.8"/><path class="st9" d="M70.3 192.9"/><polyline class="st0" points="70.3 234.2 164.8 234.2 244.2 197.3 259.3 197.3 "/><circle class="st10" cx="70.3" cy="234.2" r="3.5"/><line class="st0" x1="262.3" y1="198.3" x2="256.2" y2="192.2"/><line class="st0" x1="262.3" y1="196.2" x2="256.2" y2="202.2"/><line class="st0" x1="656.7" y1="160.8" x2="650.6" y2="166.8"/><line class="st0" x1="656.7" y1="162.9" x2="650.6" y2="156.8"/><g class="st11"><path class="st12" d="M390.5 146c0-4.5 0.9-8.8 2.5-12.8 1.7-4 4-7.5 7.1-10.5 3-3 6.6-5.3 10.7-6.9 4.1-1.7 8.4-2.5 13-2.5 4.6 0 8.9 0.8 13 2.5 4.1 1.7 7.6 4 10.6 7 3 3 5.3 6.5 7 10.5 1.7 4.1 2.5 8.3 2.5 12.9 0 4.5-0.9 8.8-2.5 12.8 -1.7 4-4 7.6-7.1 10.5 -3 3-6.6 5.3-10.7 6.9 -4.1 1.7-8.4 2.5-13 2.5 -4.6 0-8.9-0.9-13-2.5 -4.1-1.7-7.6-4-10.6-7 -3-3-5.3-6.5-7-10.5C391.4 154.8 390.5 150.6 390.5 146z"/><path class="st13" d="M438.5 156.4c-1.6 2-3.6 3.5-6 4.6 -2.4 1.1-4.9 1.6-7.4 1.6 -2.4 0-4.7-0.4-6.9-1.2 -2.2-0.8-4-1.9-5.6-3.3 -1.6-1.4-2.8-3.2-3.7-5.2 -0.9-2-1.4-4.3-1.4-6.8 0-2.5 0.5-4.8 1.4-6.8 0.9-2 2.2-3.8 3.8-5.2 1.6-1.4 3.5-2.5 5.6-3.3 2.2-0.8 4.5-1.2 6.9-1.2 2.3 0 4.3 0.4 6.2 1.2 1.8 0.8 3.4 1.9 4.7 3.3 1.3 1.4 2.3 3.2 3 5.2 0.7 2 1 4.3 1 6.8l0 3 -22.7 0c0.4 1.9 1.2 3.3 2.5 4.4 1.3 1.1 2.9 1.7 4.8 1.7 1.6 0 3-0.4 4.1-1.1 1.1-0.7 2.1-1.6 2.9-2.7L438.5 156.4zM430.2 142.6c0-1.6-0.5-3-1.6-4.2 -1.1-1.2-2.6-1.7-4.4-1.8 -1.1 0-2 0.2-2.9 0.5 -0.8 0.3-1.5 0.8-2.1 1.3 -0.6 0.5-1 1.2-1.4 1.9 -0.3 0.7-0.5 1.5-0.6 2.2L430.2 142.6z"/></g><path class="st8" d="M23.9 74.3c-2.8 0-5 2.3-5 5 0 2.8 2.3 5 5 5 2.8 0 5-2.3 5-5C29 76.5 26.7 74.3 23.9 74.3zM37.3 69.2h-4c-0.6 0-1.2-0.4-1.3-1l-1-3.1c-0.2-0.5-0.8-1-1.3-1H18.2c-0.6 0-1.2 0.4-1.3 1l-1 3.1c-0.2 0.5-0.8 1-1.3 1h-4c-1.8 0-3.4 1.5-3.4 3.4v15.1c0 1.8 1.5 3.4 3.4 3.4h26.9c1.8 0 3.4-1.5 3.4-3.4V72.6C40.7 70.7 39.2 69.2 37.3 69.2zM23.9 87.7c-4.6 0-8.4-3.8-8.4-8.4 0-4.6 3.8-8.4 8.4-8.4 4.6 0 8.4 3.8 8.4 8.4C32.3 83.9 28.6 87.7 23.9 87.7zM36.2 74.9c-0.6 0-1.2-0.5-1.2-1.2 0-0.6 0.5-1.2 1.2-1.2 0.6 0 1.2 0.5 1.2 1.2C37.3 74.4 36.8 74.9 36.2 74.9z"/><path class="st8" d="M33.3 171c4.2-3 7-7.9 7-13.4 0-9-7.4-16.4-16.4-16.4 -9 0-16.4 7.4-16.4 16.4 0 5.6 2.8 10.6 7.1 13.5 -2.2 0.9-3.4 2.1-3.4 3.4 0 3.2 6.6 5 12.8 5 6.2 0 12.8-1.7 12.8-5C36.9 173.1 35.6 171.9 33.3 171zM23.9 146.3c0.8 0 1.4 0.6 1.4 1.4 0 0.8-0.6 1.4-1.4 1.4 -0.8 0-1.4-0.6-1.4-1.4C22.5 146.9 23.1 146.3 23.9 146.3zM23.9 150.5c3.9 0 7 3.2 7 7 0 3.9-3.2 7-7 7 -3.9 0-7-3.2-7-7C16.9 153.7 20 150.5 23.9 150.5zM24.1 178.1c-7.1 0-11.4-2.1-11.4-3.6 0-0.9 1.3-1.8 3.5-2.5 2.3 1.2 4.9 1.9 7.7 1.9 2.8 0 5.5-0.7 7.9-2 2.3 0.7 3.7 1.7 3.7 2.6C35.5 176 31.2 178.1 24.1 178.1z"/><path class="st8" d="M23.9 162.2c2.6 0 4.7-2.1 4.7-4.7 0-2.6-2.1-4.7-4.7-4.7 -2.6 0-4.7 2.1-4.7 4.7C19.2 160.1 21.3 162.2 23.9 162.2z"/><path class="st8" d="M47.1 233.4l-32.4-16.1c-0.6-0.3-1.4-0.1-1.7 0.6l-6.9 13.9c-0.2 0.3-0.2 0.7-0.1 1 0.1 0.3 0.3 0.6 0.6 0.7l9.7 4.8 -0.9 1.7c-0.3 0.6-0.1 1.4 0.6 1.7l0.3 0.2 -1.7 3H4.9c-0.9-1.8-2.8-3-4.9-3v11c2.1 0 3.9-1.2 4.8-2.9h11.4c0.9 0 1.8-0.5 2.2-1.3l2.5-4.5 0.4 0.2c0.6 0.3 1.4 0.1 1.7-0.6l0.9-1.7 7.2 3.6c0.4 0.2 0.9 0.2 1.3-0.1l2-1.3 3.6 1.8c0.2 0.1 0.4 0.1 0.6 0.1 0.1 0 0.3 0 0.4-0.1 0.3-0.1 0.6-0.3 0.7-0.6l3.6-7.3 3.8-2.5c0.4-0.3 0.6-0.7 0.6-1.2C47.8 234 47.5 233.6 47.1 233.4z"/></svg>