<svg xmlns="http://www.w3.org/2000/svg" width="300" height="300" viewBox="0 0 300 300"><style type="text/css">.st0{fill:none;stroke:#ABABAB;stroke-width:3;stroke-linejoin:round;stroke-miterlimit:10;} .st1{fill:none;stroke:#ABABAB;stroke-width:3;stroke-linecap:round;stroke-linejoin:round;stroke-miterlimit:10;} .st2{fill:#ABABAB;stroke:#ABABAB;stroke-width:2;stroke-miterlimit:10;} .st3{display:none;} .st4{display:inline;fill:#ABABAB;} .st5{display:inline;opacity:0.8;fill:#ABABAB;} .st6{display:inline;} .st7{fill:none;stroke:#AAAAAA;stroke-width:3;stroke-miterlimit:10;stroke-dasharray:10.0127,10.0127;} .st8{fill:#FFFFFF;stroke:#ABABAB;stroke-width:3;stroke-miterlimit:10;} .st9{display:inline;fill:none;stroke:#AAAAAA;stroke-width:3;stroke-miterlimit:10;} .st10{fill:#ABABAB;} .st11{fill:#FFFFFF;}</style><g id="Documentation"><path class="st0" d="M43.9 208.5V77.8c0-10 3.5-13.5 13.4-13.5h196.2c9.8 0 13.4 3.6 13.4 13.5v130.7"/><path class="st0" d="M284.7 220.9c0 4.5-3.6 8.9-8.1 8.9H34.2c-4.5 0-8.1-4.5-8.1-8.9v-13.4h111.4l8.9 8.9h17.8l8.9-8.9h111.4v13.4z"/><path class="st1" d="M154.9 168.9H220M154.9 156H220M154.9 142.1H220M154.9 129.3H220M154.9 115.4H220M154.9 102.5H220"/><path class="st2" d="M91.6 163.5c-4.6 0-9-3.8-9-9.7v-14.9c0-2.7-1.2-5-3.8-5v-3.6c2.6 0 3.8-2.3 3.8-5v-14.8c0-6 4.4-9.8 9-9.8H96v4h-4.5c-2.5 0-4.8 2.3-4.8 5.7v15.3c0 3-.9 5.4-3.3 6.4 2.4 1 3.3 3.3 3.3 6.4v15.3c0 3.3 2.2 5.8 4.8 5.8H96v4h-4.4z"/></g><g id="Wrappers" class="st3"><path class="st4" d="M151.3 68H68.9c-.7 0-1.3-.4-1.6-1s-.2-1.3.2-1.8l19.8-23.4c.3-.4.8-.6 1.3-.6h42.9c.5 0 1 .2 1.3.6l19.8 23.4c.4.5.5 1.2.2 1.8s-.9 1-1.5 1zm-78.7-3.5h75l-16.9-20H89.4l-16.8 20zM110.1 117.8L67.6 67.4l2.6-2.2 39.9 47.3 39.8-47.3 2.7 2.2zM110.1 116.9c-.7 0-1.4-.5-1.6-1.1l-17.3-49c-.2-.5-.1-1.1.2-1.6l17.2-23.4c.6-.9 2.1-.9 2.8 0l17.2 23.4c.3.5.4 1.1.2 1.6l-17.2 48.9c-.2.7-.8 1.2-1.5 1.2zM94.7 66.5L110 110l15.3-43.5L110 45.7 94.7 66.5zM91.116 66.598l-4.186-23.43 3.347-.597L94.463 66zM129.002 66.6l-3.347-.598 4.19-23.428 3.346.598zM234.4 219.6c-1.1 0-2.1-.3-3.1-.8l-9.7-5.8c-1.5-.8-.7-1.1-.3-1.3 1.9-.7 2.3-.8 4.4-2 .2-.1.5-.1.7.1l7.5 4.4c.3.2.7.2.9 0l29.1-16.8c.3-.2.4-.5.4-.8V163c0-.3-.2-.6-.5-.8l-29.1-16.8c-.3-.2-.6-.2-.9 0l-29.1 16.8c-.3.2-.5.5-.5.8v33.6c0 .3.2.6.5.8l8 4.6c4.3 2.2 7-.4 7-2.9v-33.2c0-.5.4-.8.8-.8h3.7c.5 0 .8.4.8.8v33.2c0 5.8-3.1 9.1-8.6 9.1-1.7 0-3 0-6.7-1.8l-7.6-4.4c-1.9-1.1-3.1-3.1-3.1-5.3V163c0-2.2 1.2-4.2 3.1-5.3l29.1-16.8c1.8-1 4.3-1 6.1 0l29.1 16.8c1.9 1.1 3.1 3.1 3.1 5.3v33.6c0 2.2-1.2 4.2-3.1 5.3l-29.1 16.8c-.7.6-1.8.9-2.9.9zm23.6-33.1c0-6.3-4.3-8-13.2-9.2-9.1-1.2-10-1.8-10-3.9 0-1.7.8-4.1 7.5-4.1 6 0 8.2 1.3 9.1 5.3.1.4.4.7.8.7h3.8c.2 0 .5-.1.6-.3.2-.2.2-.4.2-.6-.6-7-5.2-10.2-14.5-10.2-8.3 0-13.3 3.5-13.3 9.4 0 6.4 4.9 8.1 12.9 8.9 9.5.9 10.3 2.3 10.3 4.2 0 3.3-2.6 4.6-8.8 4.6-7.7 0-9.4-1.9-10-5.8-.1-.4-.4-.7-.8-.7h-3.8c-.5 0-.8.4-.8.8 0 4.9 2.7 10.8 15.4 10.8 9.3 0 14.6-3.6 14.6-9.9zm12.8-34.2v.6h1.6v4.3h.7v-4.3h1.6v-.6h-3.9zm4.5 4.9h.6v-4l1.4 4.1h.7l1.4-4.1v4.1h.6v-4.9h-1l-1.4 4.1-1.4-4.1h-.9v4.8z"/><path id="path1948" class="st4" d="M84.7 194.6c-3.2 0-6.2.3-8.9.8-7.9 1.4-9.3 4.3-9.3 9.7v7.1h18.7v2.4H59.5c-5.4 0-10.2 3.3-11.7 9.5-1.7 7.1-1.8 11.5 0 19 1.3 5.5 4.5 9.5 9.9 9.5h6.4v-8.5c0-6.2 5.3-11.6 11.7-11.6h18.6c5.2 0 9.3-4.3 9.3-9.5v-17.8c0-5.1-4.3-8.9-9.3-9.7-3.2-.6-6.5-.9-9.7-.9zm-10.1 5.7c1.9 0 3.5 1.6 3.5 3.6s-1.6 3.5-3.5 3.5-3.5-1.6-3.5-3.5c0-2 1.6-3.6 3.5-3.6z"/><path id="path1950" class="st5" d="M106.1 214.6v8.3c0 6.4-5.4 11.8-11.7 11.8H75.8c-5.1 0-9.3 4.4-9.3 9.5V262c0 5.1 4.4 8 9.3 9.5 5.9 1.7 11.6 2 18.6 0 4.7-1.4 9.3-4.1 9.3-9.5v-7.1H85.1v-2.4H113c5.4 0 7.4-3.8 9.3-9.5 1.9-5.8 1.9-11.5 0-19-1.3-5.4-3.9-9.5-9.3-9.5h-6.9zm-10.5 44.9c1.9 0 3.5 1.6 3.5 3.5 0 2-1.6 3.6-3.5 3.6s-3.5-1.6-3.5-3.6c0-1.9 1.6-3.5 3.5-3.5z"/></g><g id="Sep_of_Concerns" class="st3"><circle class="st7" cx="150" cy="151.6" r="124.3"/><path class="st8" d="M168.8 294.2v3.8h-37.5v-3.8c0-.8.7-1.5 1.5-1.5h9.2v-3.8c2.6.7 5.3 1.1 8 1.1 2.8 0 5.5-.4 8-1.1v3.8h9.2c.9 0 1.6.7 1.6 1.5zm8-33.7c0 14.8-12 26.8-26.8 26.8s-26.8-12-26.8-26.8V258.8c0-.3 0-.6.1-.9v-.5c0-.3.1-.5.1-.8 0-.1 0-.3.1-.4.1-.3.1-.6.2-.9v-.3l.3-1.2c0-.1.1-.2.1-.3.1-.3.2-.6.2-.8 0-.1.1-.3.1-.4.1-.2.2-.5.2-.7.1-.1.1-.3.2-.4.1-.3.2-.5.3-.7.1-.1.1-.3.2-.4.2-.4.3-.7.5-1.1 0-.1.1-.2.1-.3.1-.3.3-.5.4-.8.1-.1.2-.3.2-.4.1-.2.2-.4.4-.6.1-.1.2-.3.3-.4.1-.2.2-.4.4-.6.1-.1.2-.3.3-.4.2-.2.3-.4.5-.7.1-.2.2-.3.3-.5.2-.2.4-.5.6-.7.1-.1.2-.3.3-.4.1-.2.3-.3.4-.5l.4-.4.4-.4.4-.4.4-.4.4-.4c.3-.2.5-.5.8-.7.2-.1.3-.2.5-.4.1-.1.3-.2.5-.4.2-.1.3-.2.5-.4.1-.1.3-.2.4-.3.2-.1.3-.2.5-.4.1-.1.3-.2.5-.3.2-.1.4-.2.5-.3.1-.1.3-.2.5-.3.3-.2.7-.4 1.1-.6.1-.1.3-.2.4-.2l.6-.3c.2-.1.3-.1.5-.2l.6-.3c.2-.1.3-.1.5-.2s.4-.2.6-.2c.1-.1.3-.1.4-.1 2.7-.9 5.6-1.4 8.6-1.4s5.9.5 8.6 1.4c.1 0 .3.1.4.2.2.1.4.2.6.2.2.1.3.1.5.2l.6.3c.2.1.3.1.5.2l.6.3c.2.1.3.2.5.2.3.2.7.4 1 .6.2.1.3.2.5.3.2.1.4.2.5.3.2.1.3.2.5.3.2.1.3.2.5.3.2.1.3.2.5.3.2.1.3.2.5.4.2.1.3.2.5.4.2.1.3.2.5.4.3.2.5.5.8.7.1.1.3.2.4.4.2.1.3.3.5.4l.4.4.4.4.4.4c.1.2.3.3.4.5.1.1.2.3.3.4.2.2.4.5.6.7.1.1.2.3.3.4.2.2.3.4.5.7.1.1.2.3.3.4.1.2.3.4.4.6.1.1.2.3.3.4.1.2.2.4.4.6.1.1.2.3.2.4.1.3.3.5.4.8 0 .1.1.2.1.3.2.3.3.7.5 1.1.1.1.1.2.2.4s.2.5.3.7c.1.1.1.3.2.4.1.2.2.5.2.7 0 .1.1.3.1.4.1.3.2.6.2.8 0 .1.1.2.1.3l.3 1.2c0 .1 0 .2.1.3.1.3.1.6.2.9 0 .1 0 .3.1.4 0 .3.1.5.1.8v.5c0 .3 0 .6.1.9v.4c-.3.6-.3 1-.3 1.4zm-10.7 0c0-8.9-7.2-16.1-16.1-16.1-8.9 0-16.1 7.2-16.1 16.1 0 8.9 7.2 16.1 16.1 16.1 8.9 0 16.1-7.2 16.1-16.1zM150 237.7c-2.2 0-4.3.3-6.3.9 1.5 1.9 3.7 3.1 6.3 3.1s4.9-1.2 6.3-3.1c-2-.6-4.1-.9-6.3-.9zm0 12.1c-1.7 0-3.3.4-4.8 1.2 1 .7 1.7 1.9 1.7 3.2 0 2.2-1.8 4-4 4-1.2 0-2.2-.5-2.9-1.3-.4 1.1-.7 2.3-.7 3.6 0 5.9 4.8 10.7 10.7 10.7 5.9 0 10.7-4.8 10.7-10.7 0-5.9-4.8-10.7-10.7-10.7z" id="Webcam"/><path class="st9" d="M-28.7 154.3h357.4"/><g class="st6"><path class="st10" d="M116.8 151.7c-.1-4.5.5-8.8 2.1-12.9 1.5-4.1 3.8-7.7 6.7-10.8 2.9-3.1 6.4-5.5 10.4-7.3 4-1.8 8.3-2.8 12.9-2.9 4.6-.2 8.9.5 13.1 2.1 4.1 1.5 7.8 3.7 10.9 6.6 3.1 2.9 5.6 6.3 7.4 10.3 1.8 4 2.8 8.2 3 12.8.2 4.5-.6 8.8-2.1 12.9-1.6 4.1-3.8 7.7-6.7 10.8-2.9 3.1-6.4 5.5-10.4 7.3-4 1.8-8.3 2.8-12.9 2.9-4.6.2-8.9-.5-13.1-2.1-4.1-1.5-7.8-3.7-10.9-6.6-3.1-2.9-5.6-6.3-7.4-10.3-1.9-4-2.9-8.3-3-12.8z"/><path class="st11" d="M165.1 160.4c-1.5 2-3.4 3.6-5.8 4.8-2.4 1.2-4.8 1.8-7.4 1.9-2.4.1-4.7-.2-6.9-.9s-4.1-1.7-5.7-3.1c-1.6-1.4-2.9-3.1-3.9-5.1-1-2-1.5-4.2-1.6-6.7-.1-2.5.3-4.8 1.1-6.8.8-2.1 2-3.8 3.6-5.3 1.5-1.5 3.4-2.7 5.5-3.5 2.1-.8 4.4-1.3 6.8-1.4 2.3-.1 4.3.2 6.2 1 1.9.7 3.5 1.8 4.8 3.2 1.3 1.4 2.4 3.1 3.1 5.1.8 2 1.2 4.2 1.3 6.7l.1 3-22.7.8c.5 1.8 1.4 3.3 2.7 4.3 1.3 1.1 3 1.5 4.9 1.5 1.6-.1 3-.5 4-1.2 1.1-.7 2-1.7 2.8-2.8l7.1 4.5zm-8.8-13.5c0-1.6-.6-3-1.8-4.1-1.2-1.1-2.6-1.7-4.4-1.6-1.1 0-2 .2-2.9.6-.8.4-1.5.8-2.1 1.4-.6.6-1 1.2-1.3 1.9-.3.7-.5 1.5-.5 2.2l13-.4z"/></g><path class="st8" d="M173.8 19.3c-.6-9.5-8.6-17.1-18.2-17.1-8.9 0-16.4 6.4-17.9 14.9h-.6c-6.7 0-12.3 4.4-14.1 10.5h-.9c-5.3 0-9.5 4.3-9.5 9.5 0 5.3 4.3 9.5 9.5 9.5h51.7c7.5 0 13.6-6.1 13.6-13.6 0-7.6-6.1-13.7-13.6-13.7z" id="Cloud"/></g></svg>