<?xml version="1.0" encoding="utf-8"?>
<!-- Generator: Adobe Illustrator 17.1.0, SVG Export Plug-In . SVG Version: 6.00 Build 0)  -->
<!DOCTYPE svg PUBLIC "-//W3C//DTD SVG 1.1//EN" "http://www.w3.org/Graphics/SVG/1.1/DTD/svg11.dtd">
<svg version="1.1" xmlns="http://www.w3.org/2000/svg" xmlns:xlink="http://www.w3.org/1999/xlink" x="0px" y="0px" width="512px"
	 height="512px" viewBox="0 0 512 512" enable-background="new 0 0 512 512" xml:space="preserve">
<g id="Layer_1">
	<g>
		<g>
			<path fill="#DC4C3F" d="M91.1,232.1c0-18.8,3.5-36.7,10.4-53.6c6.9-16.9,16.6-31.5,29-43.9c12.4-12.4,27-22.1,43.9-29
				c16.9-6.9,34.7-10.4,53.6-10.4c18.9,0,36.7,3.5,53.6,10.4c16.9,7,31.5,16.6,43.9,29c12.4,12.4,22.1,27.1,29,43.9
				c6.9,16.9,10.4,34.8,10.4,53.6c0,18.9-3.5,36.7-10.4,53.6c-7,16.9-16.6,31.5-29,43.9c-12.4,12.4-27.1,22.1-43.9,29
				c-16.9,6.9-34.8,10.4-53.6,10.4c-18.9,0-36.7-3.5-53.6-10.4c-16.9-6.9-31.5-16.6-43.9-29c-12.4-12.4-22.1-27-29-43.9
				C94.5,268.9,91.1,251,91.1,232.1z"/>
		</g>
		<g>
			<path fill="#FEFEFF" d="M322,298.2c-10,12.8-22.6,22.6-37.8,29.5c-15.2,6.9-31,10.4-47.4,10.4c-15.5,0-30.1-2.5-43.9-7.5
				c-13.7-5-25.6-12.1-35.8-21.4c-10.1-9.3-18.1-20.4-23.9-33.5c-5.8-13-8.7-27.6-8.7-43.7c0-16.1,2.9-30.6,8.7-43.7
				c5.8-13,13.8-24.2,23.9-33.5c10.1-9.3,22-16.4,35.8-21.4c13.7-5,28.3-7.5,43.9-7.5c14.4,0,27.5,2.5,39.3,7.5
				c11.8,5,21.8,12.1,29.9,21.4c8.2,9.3,14.5,20.4,18.9,33.5c4.4,13,6.7,27.6,6.7,43.7v19.5H186.9c2.5,11.9,7.9,21.4,16.2,28.5
				c8.3,7.1,18.6,10.6,30.8,10.6c10.3,0,18.9-2.3,26-6.9c7.1-4.6,13.2-10.5,18.5-17.7L322,298.2z M269.2,209.3
				c0.3-10.5-3.2-19.5-10.4-27c-7.2-7.5-16.5-11.2-27.9-11.2c-6.9,0-13,1.1-18.3,3.3c-5.3,2.2-9.8,5.1-13.5,8.5
				c-3.7,3.5-6.7,7.5-8.7,12.1c-2.1,4.6-3.3,9.4-3.5,14.3H269.2z"/>
		</g>
	</g>
	<path fill="#424142" d="M444,444c-14.6,14.6-38.3,14.6-52.9,0l-65.9-66c-27.1,17.4-59.2,27.8-93.8,27.8
		C135.1,405.8,57,327.7,57,231.4S135.1,57,231.4,57s174.4,78.1,174.4,174.4c0,34.6-10.4,66.7-27.8,93.8l66,65.9
		C458.6,405.8,458.6,429.4,444,444L444,444z M231.4,106.9c-68.8,0-124.6,55.8-124.6,124.6S162.6,356,231.4,356S356,300.2,356,231.4
		S300.2,106.9,231.4,106.9L231.4,106.9z"/>
</g>
<g id="Creative_Commons_License" display="none">
	
		<text id="Creative_Commons_License_1_" transform="matrix(1 0 0 1 2 502.0439)" display="inline" font-family="'MyriadPro-Regular'" font-size="12">With assets by  Victor Erixon / CC BY</text>
</g>
</svg>
