<?xml version="1.0" encoding="utf-8"?>
<!-- Generator: Adobe Illustrator 17.1.0, SVG Export Plug-In . SVG Version: 6.00 Build 0)  -->
<!DOCTYPE svg PUBLIC "-//W3C//DTD SVG 1.1//EN" "http://www.w3.org/Graphics/SVG/1.1/DTD/svg11.dtd">
<svg version="1.1" xmlns="http://www.w3.org/2000/svg" xmlns:xlink="http://www.w3.org/1999/xlink" x="0px" y="0px" width="512px"
	 height="512px" viewBox="0 0 512 512" enable-background="new 0 0 512 512" xml:space="preserve">
<g id="Layer_1">
	<g>
		<g>
			<path fill="#DC4C3F" d="M162.2,256c0-12.9,2.4-25.2,7.1-36.7c4.7-11.6,11.4-21.6,19.9-30.1c8.5-8.5,18.5-15.1,30.1-19.9
				c11.6-4.8,23.8-7.1,36.7-7.1c12.9,0,25.2,2.4,36.7,7.1c11.6,4.8,21.6,11.4,30.1,19.9c8.5,8.5,15.1,18.5,19.9,30.1
				c4.8,11.6,7.1,23.8,7.1,36.7c0,12.9-2.4,25.2-7.1,36.7c-4.8,11.6-11.4,21.6-19.9,30.1c-8.5,8.5-18.5,15.1-30.1,19.9
				c-11.6,4.7-23.8,7.1-36.7,7.1c-12.9,0-25.2-2.4-36.7-7.1c-11.6-4.8-21.6-11.4-30.1-19.9c-8.5-8.5-15.1-18.5-19.9-30.1
				C164.5,281.2,162.2,268.9,162.2,256z"/>
		</g>
		<g>
			<path fill="#FEFEFF" d="M290.1,283.4c-3.6,4.6-8.2,8.2-13.7,10.7c-5.5,2.5-11.3,3.8-17.2,3.8c-5.6,0-10.9-0.9-15.9-2.7
				c-5-1.8-9.3-4.4-13-7.8c-3.7-3.4-6.6-7.4-8.7-12.1c-2.1-4.7-3.2-10-3.2-15.8c0-5.8,1.1-11.1,3.2-15.8c2.1-4.7,5-8.8,8.7-12.1
				c3.7-3.4,8-6,13-7.8c5-1.8,10.3-2.7,15.9-2.7c5.2,0,10,0.9,14.3,2.7c4.3,1.8,7.9,4.4,10.9,7.8c3,3.4,5.3,7.4,6.9,12.1
				c1.6,4.7,2.4,10,2.4,15.8v7.1h-52.5c0.9,4.3,2.9,7.8,5.9,10.3c3,2.6,6.7,3.8,11.2,3.8c3.7,0,6.9-0.8,9.4-2.5
				c2.6-1.7,4.8-3.8,6.7-6.4L290.1,283.4z M270.9,251.2c0.1-3.8-1.2-7.1-3.8-9.8c-2.6-2.7-6-4.1-10.1-4.1c-2.5,0-4.7,0.4-6.6,1.2
				c-1.9,0.8-3.5,1.8-4.9,3.1c-1.4,1.3-2.4,2.7-3.2,4.4c-0.8,1.7-1.2,3.4-1.3,5.2H270.9z"/>
		</g>
	</g>
</g>
<g id="Creative_Commons_License" display="none">
	
		<text id="Creative_Commons_License_1_" transform="matrix(1 0 0 1 2 502.0439)" display="inline" font-family="'MyriadPro-Regular'" font-size="12">With assets by Budi Tanrim, Piotr Kwiatkowski / CC BY</text>
</g>
<g id="Photo_Camera_Zoom_Lens_Outline">
	<path fill="#424142" d="M402.3,101.2c-33.9-32.1-89.6-60.6-154.9-57.5c-34.7,1.7-61.2,8.7-85.8,21.8
		c-23.3,12.3-44.6,27.1-61.1,45.1c-33.2,36.2-59.9,87.3-56.8,154.2c3.2,67.6,30.1,110.2,66.2,146.2c36.5,36.5,85.6,57.8,155,57.5
		c63.1-0.4,112.8-31.4,146.2-66.2c35-36.5,59.4-85.3,57.5-155C466.7,183.2,436.8,133.7,402.3,101.2z M417.6,175.3
		c-38.5-10.8-73.8-21.8-112.7-33.4c-16.4-4.9-29.7-9.7-50.2-8.7c-1-2.8,2.8-4.3,4.4-5.8c14.2-14.2,31.6-30.5,46.6-44.4
		C359.8,96.9,394.7,130.2,417.6,175.3z M348.5,256.1c0.1,53.3-42,93.3-93.9,92.4c-50.7-0.9-94.2-42.5-90.9-96.8
		c2.3-37.5,24.8-66.3,53.1-79.3c8.7-4,20-6.8,32.7-8c29.1-2.7,55.2,10.5,69.8,24.8C334.2,203.6,348.4,225.8,348.5,256.1z M266.3,75
		c0.6,3.5-3.7,4.6-5.8,6.5c-17.7,16.3-36.4,34.6-54.5,51.7c-20.7,19.5-43.5,38.5-57.5,63.3c-7.7-21.9-11.9-47.3-18.2-70.6
		C161.7,95.1,202.7,73.7,266.3,75z M104.8,157.2c0.6-0.2,0.7,0.3,0.7,0.7c6.2,26.8,13.9,55.1,20.3,82.9c6.5,27.8,10.7,56.3,24,78.5
		c-22.7-4.2-45.9-14.2-70.6-18.9C68.1,246.7,80.4,188.7,104.8,157.2z M93.8,337.6c53.7,12.3,101.8,36.4,163.7,42.9
		c1.1,2.7-2.8,4.2-4.4,5.8c-14.4,14.3-32.1,30.4-47.3,44.4C153.4,414.7,117.5,382.4,93.8,337.6z M355,408.1
		c-26.7,18.5-66.7,32.1-109.1,29.1c22.2-23.7,46.9-46.7,71.3-69.1c17.2-15.8,35.5-29.7,46.6-52.4c4.1,10.9,10,37.4,13.8,53.8
		c1.2,5.3,4.2,14.6,3.6,17.4C380,392.8,359.9,404.8,355,408.1z M408.1,356.5c-18.7-51.9-21.5-119.7-46.6-165.1
		c23.9,7.2,47.1,14.9,71.3,21.8C446.4,266.5,431.2,324.1,408.1,356.5z"/>
</g>
</svg>
