<?xml version="1.0" encoding="utf-8"?>
<!-- Generator: Adobe Illustrator 17.1.0, SVG Export Plug-In . SVG Version: 6.00 Build 0)  -->
<!DOCTYPE svg PUBLIC "-//W3C//DTD SVG 1.1//EN" "http://www.w3.org/Graphics/SVG/1.1/DTD/svg11.dtd">
<svg version="1.1" xmlns="http://www.w3.org/2000/svg" xmlns:xlink="http://www.w3.org/1999/xlink" x="0px" y="0px" width="512px"
	 height="512px" viewBox="0 0 512 512" enable-background="new 0 0 512 512" xml:space="preserve">
<g id="Layer_1">
	<g id="PLAY_1_" enable-background="new    ">
		<g id="PLAY">
			<g>
				<path fill="#424142" d="M454.7,251.4c0-15-8.1-28.2-20.2-35.3l0,0L134.3,38.7c-0.1-0.1-0.2-0.1-0.3-0.2l-0.2-0.1l0,0
					c-6.1-3.6-13.2-5.7-20.9-5.7c-22.7,0-41,18.4-41,41v355.4c0,22.7,18.4,41,41,41c7.6,0,14.7-2.1,20.9-5.7l0,0l0.2-0.1
					c0.1-0.1,0.2-0.1,0.3-0.2l300.2-177.4l0,0C446.6,279.6,454.7,266.5,454.7,251.4z"/>
			</g>
		</g>
	</g>
	<g>
		<g>
			<path fill="#DC4C3F" d="M189.7,365.3c0-11.6,2.1-22.7,6.4-33.1c4.3-10.4,10.3-19.5,17.9-27.2c7.7-7.7,16.7-13.6,27.2-17.9
				c10.4-4.3,21.5-6.4,33.1-6.4c11.7,0,22.7,2.2,33.1,6.4c10.4,4.3,19.5,10.3,27.2,17.9c7.7,7.7,13.6,16.7,17.9,27.2
				c4.3,10.4,6.4,21.5,6.4,33.1c0,11.7-2.2,22.7-6.4,33.1c-4.3,10.4-10.3,19.5-17.9,27.2c-7.7,7.7-16.7,13.7-27.2,18
				c-10.4,4.3-21.5,6.4-33.1,6.4c-11.7,0-22.7-2.2-33.1-6.4c-10.4-4.3-19.5-10.3-27.2-18c-7.7-7.7-13.7-16.7-17.9-27.2
				C191.9,388,189.7,376.9,189.7,365.3z"/>
		</g>
		<g>
			<path fill="#FEFEFF" d="M332.5,406.2c-6.2,7.9-14,14-23.4,18.2c-9.4,4.3-19.2,6.4-29.3,6.4c-9.6,0-18.6-1.5-27.1-4.6
				c-8.5-3.1-15.9-7.5-22.1-13.2c-6.3-5.7-11.2-12.6-14.8-20.7c-3.6-8.1-5.4-17-5.4-27c0-9.9,1.8-18.9,5.4-27
				c3.6-8.1,8.5-14.9,14.8-20.7c6.3-5.7,13.6-10.2,22.1-13.2c8.5-3.1,17.5-4.6,27.1-4.6c8.9,0,17,1.5,24.3,4.6
				c7.3,3.1,13.4,7.5,18.5,13.2c5.1,5.7,9,12.6,11.7,20.7c2.7,8.1,4.1,17.1,4.1,27v12.1H249c1.5,7.4,4.9,13.2,10,17.6
				c5.1,4.4,11.5,6.6,19,6.6c6.3,0,11.7-1.4,16.1-4.2c4.4-2.8,8.2-6.5,11.4-10.9L332.5,406.2z M299.9,351.1c0.2-6.5-2-12.1-6.4-16.7
				c-4.5-4.6-10.2-6.9-17.2-6.9c-4.3,0-8.1,0.7-11.3,2.1c-3.3,1.4-6,3.1-8.4,5.3c-2.3,2.1-4.1,4.6-5.4,7.5c-1.3,2.8-2,5.8-2.2,8.9
				H299.9z"/>
		</g>
	</g>
	<g>
		<g>
			<path fill="#DC4C3F" d="M181.7,364.3c0-12.6,2.3-24.6,7-35.9c4.6-11.3,11.1-21.1,19.4-29.4c8.3-8.3,18.1-14.8,29.4-19.4
				c11.3-4.6,23.3-7,35.9-7c12.6,0,24.6,2.3,35.9,7c11.3,4.7,21.1,11.1,29.4,19.4c8.3,8.3,14.8,18.1,19.4,29.4
				c4.6,11.3,7,23.3,7,35.9c0,12.6-2.3,24.6-7,35.9c-4.7,11.3-11.1,21.1-19.4,29.4c-8.3,8.3-18.1,14.8-29.4,19.4
				c-11.3,4.6-23.3,7-35.9,7c-12.6,0-24.6-2.3-35.9-7c-11.3-4.6-21.1-11.1-29.4-19.4c-8.3-8.3-14.8-18.1-19.4-29.4
				C184,388.9,181.7,376.9,181.7,364.3z"/>
		</g>
		<g>
			<path fill="#FEFEFF" d="M306.8,391.1c-3.5,4.5-8,8-13.4,10.5c-5.4,2.5-11,3.7-16.8,3.7c-5.5,0-10.7-0.9-15.6-2.7
				c-4.9-1.8-9.1-4.3-12.7-7.6c-3.6-3.3-6.4-7.2-8.5-11.9c-2.1-4.6-3.1-9.8-3.1-15.5c0-5.7,1-10.9,3.1-15.5
				c2.1-4.6,4.9-8.6,8.5-11.9c3.6-3.3,7.8-5.8,12.7-7.6c4.9-1.8,10-2.7,15.6-2.7c5.1,0,9.8,0.9,13.9,2.7c4.2,1.8,7.7,4.3,10.6,7.6
				c2.9,3.3,5.1,7.2,6.7,11.9c1.6,4.6,2.4,9.8,2.4,15.5v6.9h-51.3c0.9,4.2,2.8,7.6,5.7,10.1c2.9,2.5,6.6,3.8,10.9,3.8
				c3.6,0,6.7-0.8,9.2-2.4c2.5-1.6,4.7-3.7,6.6-6.3L306.8,391.1z M288,359.5c0.1-3.7-1.1-6.9-3.7-9.6c-2.6-2.7-5.8-4-9.9-4
				c-2.5,0-4.6,0.4-6.5,1.2c-1.9,0.8-3.5,1.8-4.8,3c-1.3,1.2-2.4,2.7-3.1,4.3c-0.7,1.6-1.2,3.3-1.3,5.1H288z"/>
		</g>
	</g>
</g>
<g id="Creative_Commons_License" display="none">
	
		<text id="Creative_Commons_License_1_" transform="matrix(1 0 0 1 2 502.0439)" display="inline" font-family="'MyriadPro-Regular'" font-size="12">With assets by Budi Tanrim, Piotr Kwiatkowski / CC BY</text>
</g>
</svg>
