<?xml version="1.0" encoding="utf-8"?>
<!-- Generator: Adobe Illustrator 17.1.0, SVG Export Plug-In . SVG Version: 6.00 Build 0)  -->
<!DOCTYPE svg PUBLIC "-//W3C//DTD SVG 1.1//EN" "http://www.w3.org/Graphics/SVG/1.1/DTD/svg11.dtd">
<svg version="1.1" xmlns="http://www.w3.org/2000/svg" xmlns:xlink="http://www.w3.org/1999/xlink" x="0px" y="0px"
	 viewBox="0 0 300 300" enable-background="new 0 0 300 300" xml:space="preserve">
<g id="Layer_1" display="none">
	<path display="inline" fill="#FFFFFF" stroke="#ABABAB" stroke-width="3" stroke-linejoin="round" stroke-miterlimit="10" d="
		M43.9,217.7V78.7c0-10.6,3.5-14.4,13.4-14.4h196.2c9.8,0,13.4,3.8,13.4,14.4v138.9"/>
	<path display="inline" fill="#E5E5E5" stroke="#ABABAB" stroke-width="3" stroke-linejoin="round" stroke-miterlimit="10" d="
		M284.7,220.9c0,4.5-3.6,8.9-8.1,8.9H34.2c-4.5,0-8.1-4.5-8.1-8.9v-13.4H35h102.5l8.9,8.9h17.8l8.9-8.9h102.5h8.9V220.9z"/>
	
		<line display="inline" fill="none" stroke="#ABABAB" stroke-width="3" stroke-linecap="round" stroke-linejoin="round" stroke-miterlimit="10" x1="154.9" y1="168.9" x2="220" y2="168.9"/>
	
		<line display="inline" fill="none" stroke="#ABABAB" stroke-width="3" stroke-linecap="round" stroke-linejoin="round" stroke-miterlimit="10" x1="154.9" y1="156" x2="220" y2="156"/>
	
		<line display="inline" fill="none" stroke="#ABABAB" stroke-width="3" stroke-linecap="round" stroke-linejoin="round" stroke-miterlimit="10" x1="154.9" y1="142.1" x2="220" y2="142.1"/>
	
		<line display="inline" fill="none" stroke="#ABABAB" stroke-width="3" stroke-linecap="round" stroke-linejoin="round" stroke-miterlimit="10" x1="154.9" y1="129.3" x2="220" y2="129.3"/>
	
		<line display="inline" fill="none" stroke="#ABABAB" stroke-width="3" stroke-linecap="round" stroke-linejoin="round" stroke-miterlimit="10" x1="154.9" y1="115.4" x2="220" y2="115.4"/>
	
		<line display="inline" fill="none" stroke="#ABABAB" stroke-width="3" stroke-linecap="round" stroke-linejoin="round" stroke-miterlimit="10" x1="154.9" y1="102.5" x2="220" y2="102.5"/>
	<rect x="77.5" y="101.7" display="inline" fill="none" width="245" height="230"/>
	
		<text transform="matrix(1 0 0 1 77.4504 155.0281)" display="inline" fill="#ABABAB" font-family="'ProximaNova-Regular'" font-size="80">{</text>
</g>
<g id="Layer_7" display="none">
	<path display="inline" fill="#ABABAB" d="M123.9,56.1h-96c-0.8,0-1.5-0.5-1.8-1.2c-0.3-0.7-0.2-1.5,0.3-2.1l23-27.3
		c0.4-0.5,0.9-0.7,1.5-0.7h50c0.6,0,1.1,0.3,1.5,0.7l23,27.3c0.5,0.6,0.6,1.4,0.3,2.1S124.7,56.1,123.9,56.1z M32.3,52.1h87.4
		L100,28.8H51.9L32.3,52.1z"/>
	<polygon display="inline" fill="#ABABAB" points="75.9,114.2 26.4,55.4 29.5,52.8 75.9,108 122.4,52.8 125.5,55.4 	"/>
	<path display="inline" fill="#ABABAB" d="M75.9,113.1L75.9,113.1c-0.8,0-1.6-0.5-1.9-1.3L54,54.8c-0.2-0.6-0.1-1.3,0.3-1.9
		l20.1-27.3c0.8-1,2.5-1,3.2,0l20.1,27.3c0.4,0.5,0.5,1.2,0.3,1.9l-20.1,57C77.6,112.6,76.8,113.1,75.9,113.1z M58.1,54.5l17.9,50.7
		l17.9-50.7L75.9,30.2L58.1,54.5z"/>
	
		<rect x="39.5" y="38.5" transform="matrix(-0.1759 -0.9844 0.9844 -0.1759 22.9741 100.163)" display="inline" fill="#ABABAB" width="27.7" height="4"/>
	
		<rect x="96.5" y="26.6" transform="matrix(-0.9844 -0.176 0.176 -0.9844 188.3231 97.6319)" display="inline" fill="#ABABAB" width="4" height="27.7"/>
	<path display="inline" fill="#ABABAB" d="M228.1,189.7c-1.2,0-2.5-0.3-3.6-1l-11.3-6.7c-1.7-0.9-0.9-1.3-0.3-1.5
		c2.3-0.8,2.7-1,5.1-2.3c0.3-0.1,0.6-0.1,0.8,0.1l8.7,5.2c0.3,0.2,0.8,0.2,1.1,0l34-19.6c0.3-0.2,0.5-0.5,0.5-0.9v-39.2
		c0-0.4-0.2-0.7-0.5-0.9l-34-19.6c-0.3-0.2-0.7-0.2-1,0l-33.9,19.6c-0.3,0.2-0.5,0.6-0.5,0.9v39.2c0,0.4,0.2,0.7,0.5,0.9l9.3,5.4
		c5,2.5,8.1-0.4,8.1-3.4v-38.7c0-0.5,0.4-1,1-1h4.3c0.5,0,1,0.4,1,1v38.7c0,6.7-3.7,10.6-10.1,10.6c-2,0-3.5,0-7.8-2.1l-8.9-5.1
		c-2.2-1.3-3.6-3.6-3.6-6.2v-39.2c0-2.5,1.4-4.9,3.6-6.2l34-19.6c2.1-1.2,5-1.2,7.1,0l34,19.6c2.2,1.3,3.6,3.6,3.6,6.2v39.2
		c0,2.5-1.4,4.9-3.6,6.2l-34,19.6C230.6,189.4,229.4,189.7,228.1,189.7z M255.5,151c0-7.3-5-9.3-15.4-10.7
		c-10.5-1.4-11.6-2.1-11.6-4.6c0-2,0.9-4.8,8.7-4.8c7,0,9.5,1.5,10.6,6.2c0.1,0.4,0.5,0.8,1,0.8h4.4c0.3,0,0.5-0.1,0.7-0.3
		c0.2-0.2,0.3-0.5,0.3-0.8c-0.7-8.1-6.1-11.9-16.9-11.9c-9.7,0-15.5,4.1-15.5,10.9c0,7.4,5.7,9.5,15,10.4c11.1,1.1,12,2.7,12,4.9
		c0,3.8-3,5.4-10.2,5.4c-9,0-11-2.3-11.6-6.7c-0.1-0.5-0.5-0.8-1-0.8h-4.4c-0.5,0-1,0.4-1,1c0,5.7,3.1,12.5,18,12.5
		C249.4,162.7,255.5,158.4,255.5,151z M270.4,111.3v0.7h1.9v5h0.8v-5h1.9v-0.7H270.4z M275.7,117h0.7v-3.3c0-0.1,0-0.3,0-0.6
		c0-0.3,0-0.5,0-0.6v-0.2l1.6,4.8h0.8l1.6-4.8c0,0.3,0,0.6,0,0.9c0,0.3,0,0.5,0,0.6v3.3h0.7v-5.7h-1.1l-1.6,4.8l-1.6-4.8h-1.1V117z"
		/>
	<path id="path1948" display="inline" fill="#ABABAB" d="M74.4,196.7c-3.7,0-7.3,0.3-10.4,0.9c-9.2,1.6-10.9,5-10.9,11.3v8.3h21.7
		v2.8H53.1H45c-6.3,0-11.8,3.8-13.6,11c-2,8.3-2.1,13.4,0,22.1c1.5,6.4,5.2,11,11.6,11h7.5v-9.9c0-7.2,6.2-13.5,13.6-13.5h21.7
		c6,0,10.9-5,10.9-11v-20.7c0-5.9-5-10.3-10.9-11.3C82,197,78.1,196.7,74.4,196.7z M62.6,203.4c2.2,0,4.1,1.9,4.1,4.2
		c0,2.3-1.8,4.1-4.1,4.1c-2.3,0-4.1-1.8-4.1-4.1C58.5,205.2,60.4,203.4,62.6,203.4z"/>
	<path id="path1950" display="inline" opacity="0.8" fill="#ABABAB" d="M99.3,219.9v9.7c0,7.5-6.3,13.8-13.6,13.8H64
		c-5.9,0-10.9,5.1-10.9,11v20.7c0,5.9,5.1,9.4,10.9,11c6.9,2,13.5,2.4,21.7,0c5.5-1.6,10.9-4.8,10.9-11v-8.3H74.9v-2.8h21.7h10.9
		c6.3,0,8.7-4.4,10.9-11c2.3-6.8,2.2-13.4,0-22.1c-1.6-6.3-4.5-11-10.9-11H99.3z M87.1,272.4c2.3,0,4.1,1.8,4.1,4.1
		c0,2.3-1.8,4.2-4.1,4.2c-2.2,0-4.1-1.9-4.1-4.2C83,274.2,84.8,272.4,87.1,272.4z"/>
</g>
<g id="Layer_6">
	<g>
		
			<circle fill="none" stroke="#AAAAAA" stroke-width="3" stroke-miterlimit="10" stroke-dasharray="10.0127,10.0127" cx="150" cy="150" r="124.3"/>
	</g>
	<g id="Webcam">
		<g>
			<path fill="#FFFFFF" stroke="#ABABAB" stroke-width="3" stroke-miterlimit="10" d="M168.8,294.6v3.8h-37.5v-3.8
				c0-0.8,0.7-1.5,1.5-1.5h9.2v-3.8c2.6,0.7,5.3,1.1,8,1.1c2.8,0,5.5-0.4,8-1.1v3.8h9.2C168.1,293.1,168.8,293.7,168.8,294.6z
				 M176.8,260.9c0,14.8-12,26.8-26.8,26.8c-14.8,0-26.8-12-26.8-26.8c0-0.4,0-0.8,0-1.3c0-0.1,0-0.3,0-0.4c0-0.3,0-0.6,0.1-0.9
				c0-0.2,0-0.3,0-0.5c0-0.3,0.1-0.5,0.1-0.8c0-0.1,0-0.3,0.1-0.4c0.1-0.3,0.1-0.6,0.2-0.9c0-0.1,0-0.2,0-0.3
				c0.1-0.4,0.2-0.8,0.3-1.2c0-0.1,0.1-0.2,0.1-0.3c0.1-0.3,0.2-0.6,0.2-0.8c0-0.1,0.1-0.3,0.1-0.4c0.1-0.2,0.2-0.5,0.2-0.7
				c0.1-0.1,0.1-0.3,0.2-0.4c0.1-0.3,0.2-0.5,0.3-0.7c0.1-0.1,0.1-0.3,0.2-0.4c0.2-0.4,0.3-0.7,0.5-1.1c0-0.1,0.1-0.2,0.1-0.3
				c0.1-0.3,0.3-0.5,0.4-0.8c0.1-0.1,0.2-0.3,0.2-0.4c0.1-0.2,0.2-0.4,0.4-0.6c0.1-0.1,0.2-0.3,0.3-0.4c0.1-0.2,0.2-0.4,0.4-0.6
				c0.1-0.1,0.2-0.3,0.3-0.4c0.2-0.2,0.3-0.4,0.5-0.7c0.1-0.2,0.2-0.3,0.3-0.5c0.2-0.2,0.4-0.5,0.6-0.7c0.1-0.1,0.2-0.3,0.3-0.4
				c0.1-0.2,0.3-0.3,0.4-0.5c0.1-0.1,0.3-0.3,0.4-0.4c0.1-0.1,0.3-0.3,0.4-0.4c0.1-0.1,0.3-0.3,0.4-0.4c0.1-0.1,0.3-0.3,0.4-0.4
				c0.1-0.1,0.3-0.3,0.4-0.4c0.3-0.2,0.5-0.5,0.8-0.7c0.2-0.1,0.3-0.2,0.5-0.4c0.1-0.1,0.3-0.2,0.5-0.4c0.2-0.1,0.3-0.2,0.5-0.4
				c0.1-0.1,0.3-0.2,0.4-0.3c0.2-0.1,0.3-0.2,0.5-0.4c0.1-0.1,0.3-0.2,0.5-0.3c0.2-0.1,0.4-0.2,0.5-0.3c0.1-0.1,0.3-0.2,0.5-0.3
				c0.3-0.2,0.7-0.4,1.1-0.6c0.1-0.1,0.3-0.2,0.4-0.2c0.2-0.1,0.4-0.2,0.6-0.3c0.2-0.1,0.3-0.1,0.5-0.2c0.2-0.1,0.4-0.2,0.6-0.3
				c0.2-0.1,0.3-0.1,0.5-0.2c0.2-0.1,0.4-0.2,0.6-0.2c0.1-0.1,0.3-0.1,0.4-0.1c2.7-0.9,5.6-1.4,8.6-1.4c3,0,5.9,0.5,8.6,1.4
				c0.1,0,0.3,0.1,0.4,0.2c0.2,0.1,0.4,0.2,0.6,0.2c0.2,0.1,0.3,0.1,0.5,0.2c0.2,0.1,0.4,0.2,0.6,0.3c0.2,0.1,0.3,0.1,0.5,0.2
				c0.2,0.1,0.4,0.2,0.6,0.3c0.2,0.1,0.3,0.2,0.5,0.2c0.3,0.2,0.7,0.4,1,0.6c0.2,0.1,0.3,0.2,0.5,0.3c0.2,0.1,0.4,0.2,0.5,0.3
				c0.2,0.1,0.3,0.2,0.5,0.3c0.2,0.1,0.3,0.2,0.5,0.3c0.2,0.1,0.3,0.2,0.5,0.3c0.2,0.1,0.3,0.2,0.5,0.4c0.2,0.1,0.3,0.2,0.5,0.4
				c0.2,0.1,0.3,0.2,0.5,0.4c0.3,0.2,0.5,0.5,0.8,0.7c0.1,0.1,0.3,0.2,0.4,0.4c0.2,0.1,0.3,0.3,0.5,0.4c0.1,0.1,0.3,0.3,0.4,0.4
				c0.1,0.1,0.3,0.3,0.4,0.4c0.1,0.1,0.3,0.3,0.4,0.4c0.1,0.2,0.3,0.3,0.4,0.5c0.1,0.1,0.2,0.3,0.3,0.4c0.2,0.2,0.4,0.5,0.6,0.7
				c0.1,0.1,0.2,0.3,0.3,0.4c0.2,0.2,0.3,0.4,0.5,0.7c0.1,0.1,0.2,0.3,0.3,0.4c0.1,0.2,0.3,0.4,0.4,0.6c0.1,0.1,0.2,0.3,0.3,0.4
				c0.1,0.2,0.2,0.4,0.4,0.6c0.1,0.1,0.2,0.3,0.2,0.4c0.1,0.3,0.3,0.5,0.4,0.8c0,0.1,0.1,0.2,0.1,0.3c0.2,0.3,0.3,0.7,0.5,1.1
				c0.1,0.1,0.1,0.2,0.2,0.4c0.1,0.2,0.2,0.5,0.3,0.7c0.1,0.1,0.1,0.3,0.2,0.4c0.1,0.2,0.2,0.5,0.2,0.7c0,0.1,0.1,0.3,0.1,0.4
				c0.1,0.3,0.2,0.6,0.2,0.8c0,0.1,0.1,0.2,0.1,0.3c0.1,0.4,0.2,0.8,0.3,1.2c0,0.1,0,0.2,0.1,0.3c0.1,0.3,0.1,0.6,0.2,0.9
				c0,0.1,0,0.3,0.1,0.4c0,0.3,0.1,0.5,0.1,0.8c0,0.1,0,0.3,0,0.5c0,0.3,0,0.6,0.1,0.9c0,0.1,0,0.3,0,0.4
				C176.8,260,176.8,260.5,176.8,260.9z M166.1,260.9c0-8.9-7.2-16.1-16.1-16.1c-8.9,0-16.1,7.2-16.1,16.1S141.1,277,150,277
				C158.9,277,166.1,269.8,166.1,260.9z M150,238.1c-2.2,0-4.3,0.3-6.3,0.9c1.5,1.9,3.7,3.1,6.3,3.1s4.9-1.2,6.3-3.1
				C154.3,238.4,152.2,238.1,150,238.1z M150,250.2c-1.7,0-3.3,0.4-4.8,1.2c1,0.7,1.7,1.9,1.7,3.2c0,2.2-1.8,4-4,4
				c-1.2,0-2.2-0.5-2.9-1.3c-0.4,1.1-0.7,2.3-0.7,3.6c0,5.9,4.8,10.7,10.7,10.7c5.9,0,10.7-4.8,10.7-10.7
				C160.7,255,155.9,250.2,150,250.2z"/>
		</g>
	</g>
	<line fill="none" stroke="#AAAAAA" stroke-width="3" stroke-miterlimit="10" x1="-23" y1="153.7" x2="334.3" y2="153.7"/>
	<g>
		<g>
			<path fill="#ABABAB" d="M116.8,151.1c-0.1-4.5,0.5-8.8,2.1-12.9c1.5-4.1,3.8-7.7,6.7-10.8c2.9-3.1,6.4-5.5,10.4-7.3
				c4-1.8,8.3-2.8,12.9-2.9c4.6-0.2,8.9,0.5,13.1,2.1c4.1,1.5,7.8,3.7,10.9,6.6c3.1,2.9,5.6,6.3,7.4,10.3c1.8,4,2.8,8.2,3,12.8
				c0.2,4.5-0.6,8.8-2.1,12.9c-1.6,4.1-3.8,7.7-6.7,10.8c-2.9,3.1-6.4,5.5-10.4,7.3c-4,1.8-8.3,2.8-12.9,2.9
				c-4.6,0.2-8.9-0.5-13.1-2.1c-4.1-1.5-7.8-3.7-10.9-6.6c-3.1-2.9-5.6-6.3-7.4-10.3C117.9,159.9,116.9,155.6,116.8,151.1z"/>
		</g>
		<g>
			<path fill="#FFFFFF" d="M165.1,159.8c-1.5,2-3.4,3.6-5.8,4.8c-2.4,1.2-4.8,1.8-7.4,1.9c-2.4,0.1-4.7-0.2-6.9-0.9
				c-2.2-0.7-4.1-1.7-5.7-3.1c-1.6-1.4-2.9-3.1-3.9-5.1c-1-2-1.5-4.2-1.6-6.7c-0.1-2.5,0.3-4.8,1.1-6.8c0.8-2.1,2-3.8,3.6-5.3
				c1.5-1.5,3.4-2.7,5.5-3.5c2.1-0.8,4.4-1.3,6.8-1.4c2.3-0.1,4.3,0.2,6.2,1c1.9,0.7,3.5,1.8,4.8,3.2c1.3,1.4,2.4,3.1,3.1,5.1
				c0.8,2,1.2,4.2,1.3,6.7l0.1,3l-22.7,0.8c0.5,1.8,1.4,3.3,2.7,4.3c1.3,1.1,3,1.5,4.9,1.5c1.6-0.1,3-0.5,4-1.2
				c1.1-0.7,2-1.7,2.8-2.8L165.1,159.8z M156.3,146.3c0-1.6-0.6-3-1.8-4.1c-1.2-1.1-2.6-1.7-4.4-1.6c-1.1,0-2,0.2-2.9,0.6
				c-0.8,0.4-1.5,0.8-2.1,1.4c-0.6,0.6-1,1.2-1.3,1.9c-0.3,0.7-0.5,1.5-0.5,2.2L156.3,146.3z"/>
		</g>
	</g>
	<g id="Cloud_Internet_Symbol">
	</g>
	<g id="Cloud_Internet_Symbol_1_">
	</g>
	<g id="Cloud">
		<g>
			<path fill="#FFFFFF" stroke="#ABABAB" stroke-width="3" stroke-miterlimit="10" d="M173.8,18.7C173.8,18.7,173.8,18.7,173.8,18.7
				c-0.6-9.5-8.6-17.1-18.2-17.1c-8.9,0-16.4,6.4-17.9,14.9c-0.2,0-0.4,0-0.6,0c-6.7,0-12.3,4.4-14.1,10.5c-0.3,0-0.6,0-0.9,0
				c-5.3,0-9.5,4.3-9.5,9.5c0,5.3,4.3,9.5,9.5,9.5c0.1,0,51.7,0,51.7,0c7.5,0,13.6-6.1,13.6-13.6C187.4,24.8,181.3,18.7,173.8,18.7z
				"/>
		</g>
	</g>
</g>
</svg>
