<?xml version="1.0" encoding="utf-8"?>
<!-- Generator: Adobe Illustrator 17.1.0, SVG Export Plug-In . SVG Version: 6.00 Build 0)  -->
<!DOCTYPE svg PUBLIC "-//W3C//DTD SVG 1.1//EN" "http://www.w3.org/Graphics/SVG/1.1/DTD/svg11.dtd">
<svg id="sep-of-concerns" version="1.1" xmlns="http://www.w3.org/2000/svg" xmlns:xlink="http://www.w3.org/1999/xlink" x="0px" y="0px"
	 viewBox="0 0 300 300" enable-background="new 0 0 300 300" xml:space="preserve">
<g id="Documentation" display="none">
	<path display="inline" fill="#FFFFFF" stroke="#ABABAB" stroke-width="3" stroke-linejoin="round" stroke-miterlimit="10" d="
		M43.9,217.7V78.7c0-10.6,3.5-14.4,13.4-14.4h196.2c9.8,0,13.4,3.8,13.4,14.4v138.9"/>
	<path display="inline" fill="#E5E5E5" stroke="#ABABAB" stroke-width="3" stroke-linejoin="round" stroke-miterlimit="10" d="
		M284.7,220.9c0,4.5-3.6,8.9-8.1,8.9H34.2c-4.5,0-8.1-4.5-8.1-8.9v-13.4H35h102.5l8.9,8.9h17.8l8.9-8.9h102.5h8.9V220.9z"/>
	
		<line display="inline" fill="none" stroke="#ABABAB" stroke-width="3" stroke-linecap="round" stroke-linejoin="round" stroke-miterlimit="10" x1="154.9" y1="168.9" x2="220" y2="168.9"/>
	
		<line display="inline" fill="none" stroke="#ABABAB" stroke-width="3" stroke-linecap="round" stroke-linejoin="round" stroke-miterlimit="10" x1="154.9" y1="156" x2="220" y2="156"/>
	
		<line display="inline" fill="none" stroke="#ABABAB" stroke-width="3" stroke-linecap="round" stroke-linejoin="round" stroke-miterlimit="10" x1="154.9" y1="142.1" x2="220" y2="142.1"/>
	
		<line display="inline" fill="none" stroke="#ABABAB" stroke-width="3" stroke-linecap="round" stroke-linejoin="round" stroke-miterlimit="10" x1="154.9" y1="129.3" x2="220" y2="129.3"/>
	
		<line display="inline" fill="none" stroke="#ABABAB" stroke-width="3" stroke-linecap="round" stroke-linejoin="round" stroke-miterlimit="10" x1="154.9" y1="115.4" x2="220" y2="115.4"/>
	
		<line display="inline" fill="none" stroke="#ABABAB" stroke-width="3" stroke-linecap="round" stroke-linejoin="round" stroke-miterlimit="10" x1="154.9" y1="102.5" x2="220" y2="102.5"/>
	<rect x="77.5" y="101.7" display="inline" fill="none" width="245" height="230"/>
	
		<text transform="matrix(1 0 0 1 77.4504 155.0281)" display="inline" fill="#ABABAB" font-family="'ProximaNova-Regular'" font-size="80">{</text>
</g>
<g id="Wrappers" display="none">
	<path display="inline" fill="#ABABAB" d="M151.3,68H68.9c-0.7,0-1.3-0.4-1.6-1s-0.2-1.3,0.2-1.8l19.8-23.4c0.3-0.4,0.8-0.6,1.3-0.6
		h42.9c0.5,0,1,0.2,1.3,0.6l19.8,23.4c0.4,0.5,0.5,1.2,0.2,1.8S151.9,68,151.3,68z M72.6,64.5h75l-16.9-20H89.4L72.6,64.5z"/>
	<polygon display="inline" fill="#ABABAB" points="110.1,117.8 67.6,67.4 70.2,65.2 110.1,112.5 149.9,65.2 152.6,67.4 	"/>
	<path display="inline" fill="#ABABAB" d="M110.1,116.9L110.1,116.9c-0.7,0-1.4-0.5-1.6-1.1L91.2,66.8c-0.2-0.5-0.1-1.1,0.2-1.6
		l17.2-23.4c0.6-0.9,2.1-0.9,2.8,0l17.2,23.4c0.3,0.5,0.4,1.1,0.2,1.6l-17.2,48.9C111.4,116.4,110.8,116.9,110.1,116.9z M94.7,66.5
		l15.3,43.5l15.3-43.5l-15.3-20.8L94.7,66.5z"/>
	
		<rect x="78.8" y="52.8" transform="matrix(-0.1759 -0.9844 0.9844 -0.1759 53.0006 153.4562)" display="inline" fill="#ABABAB" width="23.8" height="3.4"/>
	
		<rect x="127.7" y="42.6" transform="matrix(-0.9844 -0.176 0.176 -0.9844 247.2124 131.0115)" display="inline" fill="#ABABAB" width="3.4" height="23.8"/>
	<path display="inline" fill="#ABABAB" d="M234.4,219.6c-1.1,0-2.1-0.3-3.1-0.8l-9.7-5.8c-1.5-0.8-0.7-1.1-0.3-1.3
		c1.9-0.7,2.3-0.8,4.4-2c0.2-0.1,0.5-0.1,0.7,0.1l7.5,4.4c0.3,0.2,0.7,0.2,0.9,0l29.1-16.8c0.3-0.2,0.4-0.5,0.4-0.8V163
		c0-0.3-0.2-0.6-0.5-0.8l-29.1-16.8c-0.3-0.2-0.6-0.2-0.9,0l-29.1,16.8c-0.3,0.2-0.5,0.5-0.5,0.8v33.6c0,0.3,0.2,0.6,0.5,0.8l8,4.6
		c4.3,2.2,7-0.4,7-2.9v-33.2c0-0.5,0.4-0.8,0.8-0.8h3.7c0.5,0,0.8,0.4,0.8,0.8v33.2c0,5.8-3.1,9.1-8.6,9.1c-1.7,0-3,0-6.7-1.8
		l-7.6-4.4c-1.9-1.1-3.1-3.1-3.1-5.3V163c0-2.2,1.2-4.2,3.1-5.3l29.1-16.8c1.8-1,4.3-1,6.1,0l29.1,16.8c1.9,1.1,3.1,3.1,3.1,5.3
		v33.6c0,2.2-1.2,4.2-3.1,5.3l-29.1,16.8C236.6,219.3,235.5,219.6,234.4,219.6z M258,186.5c0-6.3-4.3-8-13.2-9.2
		c-9.1-1.2-10-1.8-10-3.9c0-1.7,0.8-4.1,7.5-4.1c6,0,8.2,1.3,9.1,5.3c0.1,0.4,0.4,0.7,0.8,0.7h3.8c0.2,0,0.5-0.1,0.6-0.3
		c0.2-0.2,0.2-0.4,0.2-0.6c-0.6-7-5.2-10.2-14.5-10.2c-8.3,0-13.3,3.5-13.3,9.4c0,6.4,4.9,8.1,12.9,8.9c9.5,0.9,10.3,2.3,10.3,4.2
		c0,3.3-2.6,4.6-8.8,4.6c-7.7,0-9.4-1.9-10-5.8c-0.1-0.4-0.4-0.7-0.8-0.7h-3.8c-0.5,0-0.8,0.4-0.8,0.8c0,4.9,2.7,10.8,15.4,10.8
		C252.7,196.4,258,192.8,258,186.5z M270.8,152.3v0.6h1.6v4.3h0.7v-4.3h1.6v-0.6H270.8z M275.3,157.2h0.6v-2.9c0-0.1,0-0.3,0-0.5
		c0-0.2,0-0.4,0-0.5v-0.1l1.4,4.1h0.7l1.4-4.1c0,0.3,0,0.5,0,0.7c0,0.2,0,0.4,0,0.5v2.9h0.6v-4.9H279l-1.4,4.1l-1.4-4.1h-0.9V157.2z
		"/>
	<path id="path1948" display="inline" fill="#ABABAB" d="M84.7,194.6c-3.2,0-6.2,0.3-8.9,0.8c-7.9,1.4-9.3,4.3-9.3,9.7v7.1h18.7v2.4
		H66.5h-7c-5.4,0-10.2,3.3-11.7,9.5c-1.7,7.1-1.8,11.5,0,19c1.3,5.5,4.5,9.5,9.9,9.5h6.4v-8.5c0-6.2,5.3-11.6,11.7-11.6h18.6
		c5.2,0,9.3-4.3,9.3-9.5v-17.8c0-5.1-4.3-8.9-9.3-9.7C91.2,194.9,87.9,194.6,84.7,194.6z M74.6,200.3c1.9,0,3.5,1.6,3.5,3.6
		c0,2-1.6,3.5-3.5,3.5c-1.9,0-3.5-1.6-3.5-3.5C71.1,201.9,72.7,200.3,74.6,200.3z"/>
	<path id="path1950" display="inline" opacity="0.8" fill="#ABABAB" d="M106.1,214.6v8.3c0,6.4-5.4,11.8-11.7,11.8H75.8
		c-5.1,0-9.3,4.4-9.3,9.5v17.8c0,5.1,4.4,8,9.3,9.5c5.9,1.7,11.6,2,18.6,0c4.7-1.4,9.3-4.1,9.3-9.5v-7.1H85.1v-2.4h18.6h9.3
		c5.4,0,7.4-3.8,9.3-9.5c1.9-5.8,1.9-11.5,0-19c-1.3-5.4-3.9-9.5-9.3-9.5H106.1z M95.6,259.5c1.9,0,3.5,1.6,3.5,3.5
		c0,2-1.6,3.6-3.5,3.6c-1.9,0-3.5-1.6-3.5-3.6C92.1,261.1,93.7,259.5,95.6,259.5z"/>
</g>
<g id="Sep_of_Concerns">
	<g>
		
			<circle fill="none" stroke="#AAAAAA" stroke-width="3" stroke-miterlimit="10" stroke-dasharray="10.0127,10.0127" cx="150" cy="150.6" r="124.3"/>
	</g>
	<g id="Webcam">
		<g>
			<path fill="#FFFFFF" stroke="#ABABAB" stroke-width="3" stroke-miterlimit="10" d="M168.8,295.2v3.8h-37.5v-3.8
				c0-0.8,0.7-1.5,1.5-1.5h9.2v-3.8c2.6,0.7,5.3,1.1,8,1.1c2.8,0,5.5-0.4,8-1.1v3.8h9.2C168.1,293.7,168.8,294.4,168.8,295.2z
				 M176.8,261.5c0,14.8-12,26.8-26.8,26.8c-14.8,0-26.8-12-26.8-26.8c0-0.4,0-0.8,0-1.3c0-0.1,0-0.3,0-0.4c0-0.3,0-0.6,0.1-0.9
				c0-0.2,0-0.3,0-0.5c0-0.3,0.1-0.5,0.1-0.8c0-0.1,0-0.3,0.1-0.4c0.1-0.3,0.1-0.6,0.2-0.9c0-0.1,0-0.2,0-0.3
				c0.1-0.4,0.2-0.8,0.3-1.2c0-0.1,0.1-0.2,0.1-0.3c0.1-0.3,0.2-0.6,0.2-0.8c0-0.1,0.1-0.3,0.1-0.4c0.1-0.2,0.2-0.5,0.2-0.7
				c0.1-0.1,0.1-0.3,0.2-0.4c0.1-0.3,0.2-0.5,0.3-0.7c0.1-0.1,0.1-0.3,0.2-0.4c0.2-0.4,0.3-0.7,0.5-1.1c0-0.1,0.1-0.2,0.1-0.3
				c0.1-0.3,0.3-0.5,0.4-0.8c0.1-0.1,0.2-0.3,0.2-0.4c0.1-0.2,0.2-0.4,0.4-0.6c0.1-0.1,0.2-0.3,0.3-0.4c0.1-0.2,0.2-0.4,0.4-0.6
				c0.1-0.1,0.2-0.3,0.3-0.4c0.2-0.2,0.3-0.4,0.5-0.7c0.1-0.2,0.2-0.3,0.3-0.5c0.2-0.2,0.4-0.5,0.6-0.7c0.1-0.1,0.2-0.3,0.3-0.4
				c0.1-0.2,0.3-0.3,0.4-0.5c0.1-0.1,0.3-0.3,0.4-0.4c0.1-0.1,0.3-0.3,0.4-0.4c0.1-0.1,0.3-0.3,0.4-0.4c0.1-0.1,0.3-0.3,0.4-0.4
				c0.1-0.1,0.3-0.3,0.4-0.4c0.3-0.2,0.5-0.5,0.8-0.7c0.2-0.1,0.3-0.2,0.5-0.4c0.1-0.1,0.3-0.2,0.5-0.4c0.2-0.1,0.3-0.2,0.5-0.4
				c0.1-0.1,0.3-0.2,0.4-0.3c0.2-0.1,0.3-0.2,0.5-0.4c0.1-0.1,0.3-0.2,0.5-0.3c0.2-0.1,0.4-0.2,0.5-0.3c0.1-0.1,0.3-0.2,0.5-0.3
				c0.3-0.2,0.7-0.4,1.1-0.6c0.1-0.1,0.3-0.2,0.4-0.2c0.2-0.1,0.4-0.2,0.6-0.3c0.2-0.1,0.3-0.1,0.5-0.2c0.2-0.1,0.4-0.2,0.6-0.3
				c0.2-0.1,0.3-0.1,0.5-0.2c0.2-0.1,0.4-0.2,0.6-0.2c0.1-0.1,0.3-0.1,0.4-0.1c2.7-0.9,5.6-1.4,8.6-1.4c3,0,5.9,0.5,8.6,1.4
				c0.1,0,0.3,0.1,0.4,0.2c0.2,0.1,0.4,0.2,0.6,0.2c0.2,0.1,0.3,0.1,0.5,0.2c0.2,0.1,0.4,0.2,0.6,0.3c0.2,0.1,0.3,0.1,0.5,0.2
				c0.2,0.1,0.4,0.2,0.6,0.3c0.2,0.1,0.3,0.2,0.5,0.2c0.3,0.2,0.7,0.4,1,0.6c0.2,0.1,0.3,0.2,0.5,0.3c0.2,0.1,0.4,0.2,0.5,0.3
				c0.2,0.1,0.3,0.2,0.5,0.3c0.2,0.1,0.3,0.2,0.5,0.3c0.2,0.1,0.3,0.2,0.5,0.3c0.2,0.1,0.3,0.2,0.5,0.4c0.2,0.1,0.3,0.2,0.5,0.4
				c0.2,0.1,0.3,0.2,0.5,0.4c0.3,0.2,0.5,0.5,0.8,0.7c0.1,0.1,0.3,0.2,0.4,0.4c0.2,0.1,0.3,0.3,0.5,0.4c0.1,0.1,0.3,0.3,0.4,0.4
				c0.1,0.1,0.3,0.3,0.4,0.4c0.1,0.1,0.3,0.3,0.4,0.4c0.1,0.2,0.3,0.3,0.4,0.5c0.1,0.1,0.2,0.3,0.3,0.4c0.2,0.2,0.4,0.5,0.6,0.7
				c0.1,0.1,0.2,0.3,0.3,0.4c0.2,0.2,0.3,0.4,0.5,0.7c0.1,0.1,0.2,0.3,0.3,0.4c0.1,0.2,0.3,0.4,0.4,0.6c0.1,0.1,0.2,0.3,0.3,0.4
				c0.1,0.2,0.2,0.4,0.4,0.6c0.1,0.1,0.2,0.3,0.2,0.4c0.1,0.3,0.3,0.5,0.4,0.8c0,0.1,0.1,0.2,0.1,0.3c0.2,0.3,0.3,0.7,0.5,1.1
				c0.1,0.1,0.1,0.2,0.2,0.4c0.1,0.2,0.2,0.5,0.3,0.7c0.1,0.1,0.1,0.3,0.2,0.4c0.1,0.2,0.2,0.5,0.2,0.7c0,0.1,0.1,0.3,0.1,0.4
				c0.1,0.3,0.2,0.6,0.2,0.8c0,0.1,0.1,0.2,0.1,0.3c0.1,0.4,0.2,0.8,0.3,1.2c0,0.1,0,0.2,0.1,0.3c0.1,0.3,0.1,0.6,0.2,0.9
				c0,0.1,0,0.3,0.1,0.4c0,0.3,0.1,0.5,0.1,0.8c0,0.1,0,0.3,0,0.5c0,0.3,0,0.6,0.1,0.9c0,0.1,0,0.3,0,0.4
				C176.8,260.7,176.8,261.1,176.8,261.5z M166.1,261.5c0-8.9-7.2-16.1-16.1-16.1c-8.9,0-16.1,7.2-16.1,16.1
				c0,8.9,7.2,16.1,16.1,16.1C158.9,277.6,166.1,270.4,166.1,261.5z M150,238.7c-2.2,0-4.3,0.3-6.3,0.9c1.5,1.9,3.7,3.1,6.3,3.1
				s4.9-1.2,6.3-3.1C154.3,239,152.2,238.7,150,238.7z M150,250.8c-1.7,0-3.3,0.4-4.8,1.2c1,0.7,1.7,1.9,1.7,3.2c0,2.2-1.8,4-4,4
				c-1.2,0-2.2-0.5-2.9-1.3c-0.4,1.1-0.7,2.3-0.7,3.6c0,5.9,4.8,10.7,10.7,10.7c5.9,0,10.7-4.8,10.7-10.7
				C160.7,255.6,155.9,250.8,150,250.8z"/>
		</g>
	</g>
	<line fill="none" stroke="#AAAAAA" stroke-width="3" stroke-miterlimit="10" x1="-28.7" y1="154.3" x2="328.7" y2="154.3"/>
	<g>
		<g>
			<path fill="#ABABAB" d="M116.8,151.7c-0.1-4.5,0.5-8.8,2.1-12.9c1.5-4.1,3.8-7.7,6.7-10.8c2.9-3.1,6.4-5.5,10.4-7.3
				c4-1.8,8.3-2.8,12.9-2.9c4.6-0.2,8.9,0.5,13.1,2.1c4.1,1.5,7.8,3.7,10.9,6.6c3.1,2.9,5.6,6.3,7.4,10.3c1.8,4,2.8,8.2,3,12.8
				c0.2,4.5-0.6,8.8-2.1,12.9c-1.6,4.1-3.8,7.7-6.7,10.8c-2.9,3.1-6.4,5.5-10.4,7.3c-4,1.8-8.3,2.8-12.9,2.9
				c-4.6,0.2-8.9-0.5-13.1-2.1c-4.1-1.5-7.8-3.7-10.9-6.6c-3.1-2.9-5.6-6.3-7.4-10.3C117.9,160.5,116.9,156.2,116.8,151.7z"/>
		</g>
		<g>
			<path fill="#FFFFFF" d="M165.1,160.4c-1.5,2-3.4,3.6-5.8,4.8c-2.4,1.2-4.8,1.8-7.4,1.9c-2.4,0.1-4.7-0.2-6.9-0.9
				c-2.2-0.7-4.1-1.7-5.7-3.1c-1.6-1.4-2.9-3.1-3.9-5.1c-1-2-1.5-4.2-1.6-6.7c-0.1-2.5,0.3-4.8,1.1-6.8c0.8-2.1,2-3.8,3.6-5.3
				c1.5-1.5,3.4-2.7,5.5-3.5c2.1-0.8,4.4-1.3,6.8-1.4c2.3-0.1,4.3,0.2,6.2,1c1.9,0.7,3.5,1.8,4.8,3.2c1.3,1.4,2.4,3.1,3.1,5.1
				c0.8,2,1.2,4.2,1.3,6.7l0.1,3l-22.7,0.8c0.5,1.8,1.4,3.3,2.7,4.3c1.3,1.1,3,1.5,4.9,1.5c1.6-0.1,3-0.5,4-1.2
				c1.1-0.7,2-1.7,2.8-2.8L165.1,160.4z M156.3,146.9c0-1.6-0.6-3-1.8-4.1c-1.2-1.1-2.6-1.7-4.4-1.6c-1.1,0-2,0.2-2.9,0.6
				c-0.8,0.4-1.5,0.8-2.1,1.4c-0.6,0.6-1,1.2-1.3,1.9c-0.3,0.7-0.5,1.5-0.5,2.2L156.3,146.9z"/>
		</g>
	</g>
	<g id="Cloud_Internet_Symbol">
	</g>
	<g id="Cloud_Internet_Symbol_1_">
	</g>
	<g id="Cloud">
		<g>
			<path fill="#FFFFFF" stroke="#ABABAB" stroke-width="3" stroke-miterlimit="10" d="M173.8,19.3C173.8,19.3,173.8,19.3,173.8,19.3
				c-0.6-9.5-8.6-17.1-18.2-17.1c-8.9,0-16.4,6.4-17.9,14.9c-0.2,0-0.4,0-0.6,0c-6.7,0-12.3,4.4-14.1,10.5c-0.3,0-0.6,0-0.9,0
				c-5.3,0-9.5,4.3-9.5,9.5c0,5.3,4.3,9.5,9.5,9.5c0.1,0,51.7,0,51.7,0c7.5,0,13.6-6.1,13.6-13.6C187.4,25.4,181.3,19.3,173.8,19.3z
				"/>
		</g>
	</g>
</g>
</svg>
