<?xml version="1.0" encoding="utf-8"?>
<!-- Generator: Adobe Illustrator 17.1.0, SVG Export Plug-In . SVG Version: 6.00 Build 0)  -->
<!DOCTYPE svg PUBLIC "-//W3C//DTD SVG 1.1//EN" "http://www.w3.org/Graphics/SVG/1.1/DTD/svg11.dtd">
<svg version="1.1" xmlns="http://www.w3.org/2000/svg" xmlns:xlink="http://www.w3.org/1999/xlink" x="0px" y="0px" width="300px"
	 height="300px" viewBox="0 0 300 300" enable-background="new 0 0 300 300" xml:space="preserve">
<g id="Layer_1">
	<g id="Layer_1_1_" display="none">
		<path display="inline" fill="#FFFFFF" stroke="#ABABAB" stroke-width="3" stroke-linejoin="round" stroke-miterlimit="10" d="
			M43.9,217.7v-139c0-10.6,3.5-14.4,13.4-14.4h196.2c9.8,0,13.4,3.8,13.4,14.4v138.9"/>
		<path display="inline" fill="#E5E5E5" stroke="#ABABAB" stroke-width="3" stroke-linejoin="round" stroke-miterlimit="10" d="
			M284.7,220.9c0,4.5-3.6,8.9-8.1,8.9H34.2c-4.5,0-8.1-4.5-8.1-8.9v-13.4H35h102.5l8.9,8.9h17.8l8.9-8.9h102.5h8.9v13.4H284.7z"/>
		
			<line display="inline" fill="none" stroke="#ABABAB" stroke-width="3" stroke-linecap="round" stroke-linejoin="round" stroke-miterlimit="10" x1="154.9" y1="168.9" x2="220" y2="168.9"/>
		
			<line display="inline" fill="none" stroke="#ABABAB" stroke-width="3" stroke-linecap="round" stroke-linejoin="round" stroke-miterlimit="10" x1="154.9" y1="156" x2="220" y2="156"/>
		
			<line display="inline" fill="none" stroke="#ABABAB" stroke-width="3" stroke-linecap="round" stroke-linejoin="round" stroke-miterlimit="10" x1="154.9" y1="142.1" x2="220" y2="142.1"/>
		
			<line display="inline" fill="none" stroke="#ABABAB" stroke-width="3" stroke-linecap="round" stroke-linejoin="round" stroke-miterlimit="10" x1="154.9" y1="129.3" x2="220" y2="129.3"/>
		
			<line display="inline" fill="none" stroke="#ABABAB" stroke-width="3" stroke-linecap="round" stroke-linejoin="round" stroke-miterlimit="10" x1="154.9" y1="115.4" x2="220" y2="115.4"/>
		
			<line display="inline" fill="none" stroke="#ABABAB" stroke-width="3" stroke-linecap="round" stroke-linejoin="round" stroke-miterlimit="10" x1="154.9" y1="102.5" x2="220" y2="102.5"/>
		<rect x="77.5" y="101.7" display="inline" fill="none" width="245" height="230"/>
		
			<text transform="matrix(1 0 0 1 77.4504 155.0281)" display="inline" fill="#ABABAB" font-family="'ProximaNova-Regular'" font-size="80">{</text>
	</g>
	<g id="Layer_7" display="none">
		<path display="inline" fill="#ABABAB" d="M151.3,68H68.9c-0.7,0-1.3-0.4-1.6-1s-0.2-1.3,0.2-1.8l19.8-23.4
			c0.3-0.4,0.8-0.6,1.3-0.6h42.9c0.5,0,1,0.2,1.3,0.6l19.8,23.4c0.4,0.5,0.5,1.2,0.2,1.8S151.9,68,151.3,68z M72.6,64.5h75l-16.9-20
			H89.4L72.6,64.5z"/>
		<polygon display="inline" fill="#ABABAB" points="110.1,117.8 67.6,67.4 70.2,65.2 110.1,112.5 149.9,65.2 152.6,67.4 		"/>
		<path display="inline" fill="#ABABAB" d="M110.1,116.9L110.1,116.9c-0.7,0-1.4-0.5-1.6-1.1l-17.3-49c-0.2-0.5-0.1-1.1,0.2-1.6
			l17.2-23.4c0.6-0.9,2.1-0.9,2.8,0l17.2,23.4c0.3,0.5,0.4,1.1,0.2,1.6l-17.2,48.9C111.4,116.4,110.8,116.9,110.1,116.9z M94.7,66.5
			L110,110l15.3-43.5L110,45.7L94.7,66.5z"/>
		
			<rect x="78.8" y="52.9" transform="matrix(0.1759 0.9844 -0.9844 0.1759 128.4568 -44.3017)" display="inline" fill="#ABABAB" width="23.8" height="3.4"/>
		
			<rect x="127.7" y="42.7" transform="matrix(0.9844 0.176 -0.176 0.9844 11.628 -21.9217)" display="inline" fill="#ABABAB" width="3.4" height="23.8"/>
		<path display="inline" fill="#ABABAB" d="M234.4,219.6c-1.1,0-2.1-0.3-3.1-0.8l-9.7-5.8c-1.5-0.8-0.7-1.1-0.3-1.3
			c1.9-0.7,2.3-0.8,4.4-2c0.2-0.1,0.5-0.1,0.7,0.1l7.5,4.4c0.3,0.2,0.7,0.2,0.9,0l29.1-16.8c0.3-0.2,0.4-0.5,0.4-0.8V163
			c0-0.3-0.2-0.6-0.5-0.8l-29.1-16.8c-0.3-0.2-0.6-0.2-0.9,0l-29.1,16.8c-0.3,0.2-0.5,0.5-0.5,0.8v33.6c0,0.3,0.2,0.6,0.5,0.8l8,4.6
			c4.3,2.2,7-0.4,7-2.9v-33.2c0-0.5,0.4-0.8,0.8-0.8h3.7c0.5,0,0.8,0.4,0.8,0.8v33.2c0,5.8-3.1,9.1-8.6,9.1c-1.7,0-3,0-6.7-1.8
			l-7.6-4.4c-1.9-1.1-3.1-3.1-3.1-5.3V163c0-2.2,1.2-4.2,3.1-5.3l29.1-16.8c1.8-1,4.3-1,6.1,0l29.1,16.8c1.9,1.1,3.1,3.1,3.1,5.3
			v33.6c0,2.2-1.2,4.2-3.1,5.3l-29.1,16.8C236.6,219.3,235.5,219.6,234.4,219.6z M258,186.5c0-6.3-4.3-8-13.2-9.2
			c-9.1-1.2-10-1.8-10-3.9c0-1.7,0.8-4.1,7.5-4.1c6,0,8.2,1.3,9.1,5.3c0.1,0.4,0.4,0.7,0.8,0.7h3.8c0.2,0,0.5-0.1,0.6-0.3
			c0.2-0.2,0.2-0.4,0.2-0.6c-0.6-7-5.2-10.2-14.5-10.2c-8.3,0-13.3,3.5-13.3,9.4c0,6.4,4.9,8.1,12.9,8.9c9.5,0.9,10.3,2.3,10.3,4.2
			c0,3.3-2.6,4.6-8.8,4.6c-7.7,0-9.4-1.9-10-5.8c-0.1-0.4-0.4-0.7-0.8-0.7h-3.8c-0.5,0-0.8,0.4-0.8,0.8c0,4.9,2.7,10.8,15.4,10.8
			C252.7,196.4,258,192.8,258,186.5z M270.8,152.3v0.6h1.6v4.3h0.7v-4.3h1.6v-0.6H270.8z M275.3,157.2h0.6v-2.9c0-0.1,0-0.3,0-0.5
			s0-0.4,0-0.5v-0.1l1.4,4.1h0.7l1.4-4.1c0,0.3,0,0.5,0,0.7s0,0.4,0,0.5v2.9h0.6v-4.9h-1l-1.4,4.1l-1.4-4.1h-0.9L275.3,157.2
			L275.3,157.2z"/>
		<path id="path1948" display="inline" fill="#ABABAB" d="M84.7,194.6c-3.2,0-6.2,0.3-8.9,0.8c-7.9,1.4-9.3,4.3-9.3,9.7v7.1h18.7
			v2.4H66.5h-7c-5.4,0-10.2,3.3-11.7,9.5c-1.7,7.1-1.8,11.5,0,19c1.3,5.5,4.5,9.5,9.9,9.5h6.4v-8.5c0-6.2,5.3-11.6,11.7-11.6h18.6
			c5.2,0,9.3-4.3,9.3-9.5v-17.8c0-5.1-4.3-8.9-9.3-9.7C91.2,194.9,87.9,194.6,84.7,194.6z M74.6,200.3c1.9,0,3.5,1.6,3.5,3.6
			s-1.6,3.5-3.5,3.5s-3.5-1.6-3.5-3.5C71.1,201.9,72.7,200.3,74.6,200.3z"/>
		<path id="path1950" display="inline" opacity="0.8" fill="#ABABAB" enable-background="new    " d="M106.1,214.6v8.3
			c0,6.4-5.4,11.8-11.7,11.8H75.8c-5.1,0-9.3,4.4-9.3,9.5V262c0,5.1,4.4,8,9.3,9.5c5.9,1.7,11.6,2,18.6,0c4.7-1.4,9.3-4.1,9.3-9.5
			v-7.1H85.1v-2.4h18.6h9.3c5.4,0,7.4-3.8,9.3-9.5c1.9-5.8,1.9-11.5,0-19c-1.3-5.4-3.9-9.5-9.3-9.5h-6.9V214.6z M95.6,259.5
			c1.9,0,3.5,1.6,3.5,3.5c0,2-1.6,3.6-3.5,3.6s-3.5-1.6-3.5-3.6C92.1,261.1,93.7,259.5,95.6,259.5z"/>
	</g>
	<g id="Layer_6" display="none">
		<g display="inline">
			
				<circle fill="none" stroke="#AAAAAA" stroke-width="3" stroke-miterlimit="10" stroke-dasharray="10.0127,10.0127" cx="525.8" cy="-8.5" r="124.3"/>
		</g>
		<g id="Webcam" display="inline">
			<g>
				<path fill="#FFFFFF" stroke="#ABABAB" stroke-width="3" stroke-miterlimit="10" d="M544.6,136.1v3.8H507v-3.8
					c0-0.8,0.7-1.5,1.5-1.5h9.2v-3.8c2.6,0.7,5.3,1.1,8,1.1c2.8,0,5.5-0.4,8-1.1v3.8h9.2C543.9,134.5,544.6,135.2,544.6,136.1z
					 M552.6,102.4c0,14.8-12,26.8-26.8,26.8s-26.8-12-26.8-26.8c0-0.4,0-0.8,0-1.3c0-0.1,0-0.3,0-0.4c0-0.3,0-0.6,0.1-0.9
					c0-0.2,0-0.3,0-0.5c0-0.3,0.1-0.5,0.1-0.8c0-0.1,0-0.3,0.1-0.4c0.1-0.3,0.1-0.6,0.2-0.9c0-0.1,0-0.2,0-0.3
					c0.1-0.4,0.2-0.8,0.3-1.2c0-0.1,0.1-0.2,0.1-0.3c0.1-0.3,0.2-0.6,0.2-0.8c0-0.1,0.1-0.3,0.1-0.4c0.1-0.2,0.2-0.5,0.2-0.7
					c0.1-0.1,0.1-0.3,0.2-0.4c0.1-0.3,0.2-0.5,0.3-0.7c0.1-0.1,0.1-0.3,0.2-0.4c0.2-0.4,0.3-0.7,0.5-1.1c0-0.1,0.1-0.2,0.1-0.3
					c0.1-0.3,0.3-0.5,0.4-0.8c0.1-0.1,0.2-0.3,0.2-0.4c0.1-0.2,0.2-0.4,0.4-0.6c0.1-0.1,0.2-0.3,0.3-0.4c0.1-0.2,0.2-0.4,0.4-0.6
					c0.1-0.1,0.2-0.3,0.3-0.4c0.2-0.2,0.3-0.4,0.5-0.7c0.1-0.2,0.2-0.3,0.3-0.5c0.2-0.2,0.4-0.5,0.6-0.7c0.1-0.1,0.2-0.3,0.3-0.4
					c0.1-0.2,0.3-0.3,0.4-0.5c0.1-0.1,0.3-0.3,0.4-0.4s0.3-0.3,0.4-0.4s0.3-0.3,0.4-0.4s0.3-0.3,0.4-0.4s0.3-0.3,0.4-0.4
					c0.3-0.2,0.5-0.5,0.8-0.7c0.2-0.1,0.3-0.2,0.5-0.4c0.1-0.1,0.3-0.2,0.5-0.4c0.2-0.1,0.3-0.2,0.5-0.4c0.1-0.1,0.3-0.2,0.4-0.3
					c0.2-0.1,0.3-0.2,0.5-0.4c0.1-0.1,0.3-0.2,0.5-0.3c0.2-0.1,0.4-0.2,0.5-0.3c0.1-0.1,0.3-0.2,0.5-0.3c0.3-0.2,0.7-0.4,1.1-0.6
					c0.1-0.1,0.3-0.2,0.4-0.2c0.2-0.1,0.4-0.2,0.6-0.3c0.2-0.1,0.3-0.1,0.5-0.2s0.4-0.2,0.6-0.3c0.2-0.1,0.3-0.1,0.5-0.2
					s0.4-0.2,0.6-0.2c0.1-0.1,0.3-0.1,0.4-0.1c2.7-0.9,5.6-1.4,8.6-1.4s5.9,0.5,8.6,1.4c0.1,0,0.3,0.1,0.4,0.2
					c0.2,0.1,0.4,0.2,0.6,0.2c0.2,0.1,0.3,0.1,0.5,0.2s0.4,0.2,0.6,0.3c0.2,0.1,0.3,0.1,0.5,0.2s0.4,0.2,0.6,0.3
					c0.2,0.1,0.3,0.2,0.5,0.2c0.3,0.2,0.7,0.4,1,0.6c0.2,0.1,0.3,0.2,0.5,0.3c0.2,0.1,0.4,0.2,0.5,0.3c0.2,0.1,0.3,0.2,0.5,0.3
					c0.2,0.1,0.3,0.2,0.5,0.3c0.2,0.1,0.3,0.2,0.5,0.3c0.2,0.1,0.3,0.2,0.5,0.4c0.2,0.1,0.3,0.2,0.5,0.4c0.2,0.1,0.3,0.2,0.5,0.4
					c0.3,0.2,0.5,0.5,0.8,0.7c0.1,0.1,0.3,0.2,0.4,0.4c0.2,0.1,0.3,0.3,0.5,0.4c0.1,0.1,0.3,0.3,0.4,0.4c0.1,0.1,0.3,0.3,0.4,0.4
					c0.1,0.1,0.3,0.3,0.4,0.4c0.1,0.2,0.3,0.3,0.4,0.5c0.1,0.1,0.2,0.3,0.3,0.4c0.2,0.2,0.4,0.5,0.6,0.7c0.1,0.1,0.2,0.3,0.3,0.4
					c0.2,0.2,0.3,0.4,0.5,0.7c0.1,0.1,0.2,0.3,0.3,0.4c0.1,0.2,0.3,0.4,0.4,0.6c0.1,0.1,0.2,0.3,0.3,0.4c0.1,0.2,0.2,0.4,0.4,0.6
					c0.1,0.1,0.2,0.3,0.2,0.4c0.1,0.3,0.3,0.5,0.4,0.8c0,0.1,0.1,0.2,0.1,0.3c0.2,0.3,0.3,0.7,0.5,1.1c0.1,0.1,0.1,0.2,0.2,0.4
					c0.1,0.2,0.2,0.5,0.3,0.7c0.1,0.1,0.1,0.3,0.2,0.4c0.1,0.2,0.2,0.5,0.2,0.7c0,0.1,0.1,0.3,0.1,0.4c0.1,0.3,0.2,0.6,0.2,0.8
					c0,0.1,0.1,0.2,0.1,0.3c0.1,0.4,0.2,0.8,0.3,1.2c0,0.1,0,0.2,0.1,0.3c0.1,0.3,0.1,0.6,0.2,0.9c0,0.1,0,0.3,0.1,0.4
					c0,0.3,0.1,0.5,0.1,0.8c0,0.1,0,0.3,0,0.5c0,0.3,0,0.6,0.1,0.9c0,0.1,0,0.3,0,0.4C552.6,101.5,552.6,102,552.6,102.4z
					 M541.9,102.4c0-8.9-7.2-16.1-16.1-16.1s-16.1,7.2-16.1,16.1s7.2,16.1,16.1,16.1C534.7,118.5,541.9,111.3,541.9,102.4z
					 M525.8,79.6c-2.2,0-4.3,0.3-6.3,0.9c1.5,1.9,3.7,3.1,6.3,3.1s4.9-1.2,6.3-3.1C530.1,79.9,528,79.6,525.8,79.6z M525.8,91.7
					c-1.7,0-3.3,0.4-4.8,1.2c1,0.7,1.7,1.9,1.7,3.2c0,2.2-1.8,4-4,4c-1.2,0-2.2-0.5-2.9-1.3c-0.4,1.1-0.7,2.3-0.7,3.6
					c0,5.9,4.8,10.7,10.7,10.7s10.7-4.8,10.7-10.7C536.5,96.5,531.7,91.7,525.8,91.7z"/>
			</g>
		</g>
		
			<line display="inline" fill="none" stroke="#AAAAAA" stroke-width="3" stroke-miterlimit="10" x1="352.8" y1="-4.9" x2="710.1" y2="-4.9"/>
		<g display="inline">
			<g>
				<path fill="#ABABAB" d="M492.6-7.4c-0.1-4.5,0.5-8.8,2.1-12.9c1.5-4.1,3.8-7.7,6.7-10.8c2.9-3.1,6.4-5.5,10.4-7.3
					c4-1.8,8.3-2.8,12.9-2.9c4.6-0.2,8.9,0.5,13.1,2.1c4.1,1.5,7.8,3.7,10.9,6.6c3.1,2.9,5.6,6.3,7.4,10.3c1.8,4,2.8,8.2,3,12.8
					c0.2,4.5-0.6,8.8-2.1,12.9c-1.6,4.1-3.8,7.7-6.7,10.8s-6.4,5.5-10.4,7.3s-8.3,2.8-12.9,2.9c-4.6,0.2-8.9-0.5-13.1-2.1
					c-4.1-1.5-7.8-3.7-10.9-6.6s-5.6-6.3-7.4-10.3C493.7,1.4,492.8-2.9,492.6-7.4z"/>
			</g>
			<g>
				<path fill="#FFFFFF" d="M540.9,1.3c-1.5,2-3.4,3.6-5.8,4.8c-2.4,1.2-4.8,1.8-7.4,1.9c-2.4,0-4.7-0.3-6.9-1s-4.1-1.7-5.7-3.1
					c-1.6-1.4-2.9-3.1-3.9-5.1c-1-2-1.5-4.2-1.6-6.7s0.3-4.8,1.1-6.8c0.8-2.1,2-3.8,3.6-5.3c1.5-1.5,3.4-2.7,5.5-3.5
					s4.4-1.3,6.8-1.4c2.3-0.1,4.3,0.2,6.2,1c1.9,0.7,3.5,1.8,4.8,3.2c1.3,1.4,2.4,3.1,3.1,5.1c0.8,2,1.2,4.2,1.3,6.7l0.1,3
					l-22.7,0.8c0.5,1.8,1.4,3.3,2.7,4.3c1.3,1.1,3,1.5,4.9,1.5c1.6-0.1,3-0.5,4-1.2c1.1-0.7,2-1.7,2.8-2.8L540.9,1.3z M532.1-12.3
					c0-1.6-0.6-3-1.8-4.1s-2.6-1.7-4.4-1.6c-1.1,0-2,0.2-2.9,0.6c-0.8,0.4-1.5,0.8-2.1,1.4s-1,1.2-1.3,1.9s-0.5,1.5-0.5,2.2
					L532.1-12.3z"/>
			</g>
		</g>
		<g id="Cloud_Internet_Symbol" display="inline">
		</g>
		<g id="Cloud_Internet_Symbol_1_" display="inline">
		</g>
		<g id="Cloud" display="inline">
			<g>
				<path fill="#FFFFFF" stroke="#ABABAB" stroke-width="3" stroke-miterlimit="10" d="M549.6-139.9L549.6-139.9
					c-0.6-9.5-8.6-17.1-18.2-17.1c-8.9,0-16.4,6.4-17.9,14.9c-0.2,0-0.4,0-0.6,0c-6.7,0-12.3,4.4-14.1,10.5c-0.3,0-0.6,0-0.9,0
					c-5.3,0-9.5,4.3-9.5,9.5c0,5.3,4.3,9.5,9.5,9.5c0.1,0,51.7,0,51.7,0c7.5,0,13.6-6.1,13.6-13.6
					C563.2-133.7,557.2-139.9,549.6-139.9z"/>
			</g>
		</g>
	</g>
	<g id="Layer_10">
		<path fill="#E6E6E5" d="M-426.4-418.7c-0.4-1.2-1.3-2-3-2h-91c-1.7,0-2.6,0.9-3,2l-4,12.4c-0.3,1-2,1.5-2,1.5h109
			c0,0-1.7-0.4-2-1.5L-426.4-418.7z"/>
	</g>
	<circle fill="#F5F5F5" cx="150" cy="150" r="149.7"/>
</g>
<g id="Camera_Night_Mode">
</g>
<g id="Moon_Phase_Symbol">
</g>
<g id="Moon_Phase_Interface_Symbol">
</g>
<g id="Moon_Phase_Symbol_With_Craters">
</g>
<g id="Moon_Phase_Symbol_1_">
</g>
<g id="Moon_Phase_Symbol_2_">
</g>
<g id="Moon_Phase_Circular_Weather_Symbol">
</g>
<g id="Moon_Phase_Symbol_3_">
</g>
<g id="Moon_Phase_Symbol_4_">
</g>
<g id="Moon_Phase_Symbol_5_">
</g>
<g id="Moon_Phase_Symbol_6_">
</g>
<g id="Moon_Phase_Symbol_7_">
</g>
<g id="Moon_Phase_Symbol_8_">
</g>
<g id="Moon_Phase_Symbol_With_Craters_1_">
</g>
<g id="Moon_Phase_Symbol_9_">
</g>
<g id="Moon_Phase_Symbol_10_">
</g>
<g id="Moon_Phase_Symbol_11_">
</g>
<g id="New_Moon_Shape">
</g>
<g id="Half_Moon_Phase_Weather_Interface_Symbol">
	<g>
		<path fill="#E3E5E6" d="M150,11c-12.5,0-22.7,10.2-22.7,22.7s10.2,22.7,22.7,22.7s22.7-10.2,22.7-22.7S162.5,11,150,11z M150,52.6
			V33.7V14.8c10.6,0,18.9,8.3,18.9,18.9S160.6,52.6,150,52.6z"/>
	</g>
</g>
<g id="Crescent_Moon_Circular_Symbol_Of_Weather">
	<g>
		<path fill="#E3E5E6" d="M267.3,127.3c-12.5,0-22.7,10.2-22.7,22.7s10.2,22.7,22.7,22.7c12.5,0,22.7-10.2,22.7-22.7
			S279.8,127.3,267.3,127.3z M267.3,168.9c-10.6,0-18.9-8.3-18.9-18.9s8.3-18.9,18.9-18.9c-6.4,0-11.4,8.3-11.4,18.9
			S260.8,168.9,267.3,168.9z"/>
	</g>
</g>
<g id="Gibbous_Moon_Weather_Interface_Symbol">
	<g>
		<path fill="#E3E5E6" d="M31.7,127.3C19.2,127.3,9,137.5,9,150s10.2,22.7,22.7,22.7s22.7-10.2,22.7-22.7S44.2,127.3,31.7,127.3z
			 M31.7,168.9c-10.6,0-18.9-8.3-18.9-18.9s8.3-18.9,18.9-18.9c6.4,0,11.4,8.3,11.4,18.9S38.1,168.9,31.7,168.9z"/>
	</g>
</g>
<g id="Full_Moon_Circle">
	<g>
		<circle fill="#E3E5E6" cx="150" cy="267.3" r="22.7"/>
	</g>
</g>
<g id="Time_Left">
	<g>
		<g id="Layer_2_16_">
			<g>
				<path fill="#DC4C3F" d="M161.5,196.6c-0.9,0.2-1.9,0.4-2.8,0.6c-2.5,0.5-4.1,2.8-3.7,5.3c0.2,1.2,0.9,2.2,1.9,2.9
					c1,0.7,2.2,1,3.5,0.8c1.1-0.2,2.3-0.5,3.4-0.7c2.4-0.6,3.9-3.1,3.3-5.5C166.4,197.5,163.9,196,161.5,196.6z"/>
				<path fill="#DC4C3F" d="M195.2,135.5c0.3,1,0.9,1.7,1.7,2.3c1.1,0.8,2.6,1.1,4.1,0.6c2.4-0.8,3.7-3.4,2.9-5.8
					c-0.4-1.1-0.8-2.2-1.2-3.2c-0.9-2.3-3.6-3.5-5.9-2.5c-2.3,0.9-3.5,3.6-2.5,5.9C194.6,133.6,194.9,134.6,195.2,135.5z"/>
				<path fill="#DC4C3F" d="M176.3,190.1c-0.8,0.5-1.6,1-2.5,1.5c-2.2,1.3-2.9,4-1.7,6.2c0.3,0.6,0.8,1.1,1.3,1.4
					c1.4,1,3.3,1.1,4.9,0.2c1-0.6,2-1.2,2.9-1.8c2.1-1.4,2.7-4.2,1.3-6.3C181.2,189.3,178.4,188.7,176.3,190.1z"/>
				<path fill="#DC4C3F" d="M206.7,148.2c-0.1-2.5-2.2-4.5-4.7-4.4c-2.5,0.1-4.5,2.2-4.4,4.7c0,1,0,1.9,0,2.9c0,1.6,0.7,3,1.9,3.8
					c0.7,0.5,1.6,0.8,2.5,0.8c2.5,0.1,4.6-1.9,4.7-4.5C206.8,150.5,206.7,149.4,206.7,148.2z"/>
				<path fill="#DC4C3F" d="M194.5,178.1c-2-1.5-4.9-1.1-6.4,0.9c-0.6,0.8-1.2,1.5-1.8,2.3c-1.6,1.9-1.4,4.8,0.5,6.4
					c0.1,0.1,0.2,0.2,0.3,0.3c1.9,1.3,4.6,1,6.1-0.8c0.7-0.9,1.5-1.8,2.2-2.7C196.9,182.5,196.5,179.6,194.5,178.1z"/>
				<path fill="#DC4C3F" d="M201.2,161.6c-2.4-0.8-5,0.6-5.7,3c-0.3,0.9-0.6,1.8-1,2.7c-0.8,2,0,4.2,1.6,5.4c0.3,0.2,0.6,0.4,1,0.5
					c2.4,0.9,5-0.3,5.9-2.6c0.4-1.1,0.8-2.2,1.1-3.3C204.9,164.9,203.6,162.4,201.2,161.6z"/>
				<path fill="#DC4C3F" d="M141.6,197.3c-4.1-0.7-8-2-11.7-3.7c0,0-0.1,0-0.1-0.1c-0.9-0.4-1.7-0.9-2.6-1.3c0,0,0,0,0,0
					c-1.6-0.9-3.1-1.8-4.5-2.8c-21.5-15.1-26.6-44.9-11.5-66.3c3.3-4.7,7.3-8.6,11.7-11.6c0.1,0,0.1-0.1,0.2-0.1
					c15.6-10.8,36.9-11.5,53.4-0.4l-3.6,5.2c-1,1.4-0.4,2.5,1.4,2.3l15.5-1.4c1.7-0.2,2.8-1.7,2.3-3.3l-4.2-15
					c-0.5-1.7-1.7-1.9-2.6-0.4l-3.6,5.2c-12.2-8.2-26.8-11.3-41.3-8.8c-1.5,0.3-2.9,0.6-4.3,0.9c0,0,0,0,0,0c-0.1,0-0.1,0-0.2,0
					c-12.5,3.2-23.4,10.5-31.2,20.9c-0.1,0.1-0.1,0.2-0.2,0.2c-0.3,0.3-0.5,0.7-0.8,1.1c-0.4,0.6-0.8,1.2-1.2,1.8
					c0,0.1-0.1,0.1-0.1,0.2c-6.4,10-9.5,21.5-9,33.2c0,0,0,0.1,0,0.1c0.1,1.1,0.1,2.3,0.3,3.4c0,0.1,0,0.1,0,0.2
					c0.1,1.1,0.3,2.3,0.5,3.5c2,11.7,7.6,22.3,15.9,30.5c0,0,0,0,0.1,0.1c0,0,0,0,0,0c2.2,2.2,4.7,4.2,7.3,6.1
					c6.8,4.8,14.4,8,22.6,9.5c2.5,0.4,4.8-1.2,5.3-3.7C145.7,200.1,144,197.7,141.6,197.3z"/>
				<path fill="#DC4C3F" d="M147.2,113.6c-2,0-3.7,1.7-3.7,3.7V154l33.6,17.4c0.5,0.3,1.1,0.4,1.7,0.4c1.3,0,2.6-0.7,3.3-2
					c0.9-1.8,0.2-4-1.6-5l-29.6-15.3v-32.3C150.9,115.2,149.2,113.6,147.2,113.6z"/>
			</g>
		</g>
	</g>
</g>
</svg>
