<?xml version="1.0" encoding="utf-8"?>
<!-- Generator: Adobe Illustrator 17.1.0, SVG Export Plug-In . SVG Version: 6.00 Build 0)  -->
<!DOCTYPE svg PUBLIC "-//W3C//DTD SVG 1.1//EN" "http://www.w3.org/Graphics/SVG/1.1/DTD/svg11.dtd">
<svg version="1.1" xmlns="http://www.w3.org/2000/svg" xmlns:xlink="http://www.w3.org/1999/xlink" x="0px" y="0px"
	 viewBox="0 0 300 300" enable-background="new 0 0 300 300" xml:space="preserve">
<g id="Layer_1" display="none">
	<path display="inline" fill="#FFFFFF" stroke="#ABABAB" stroke-width="3" stroke-linejoin="round" stroke-miterlimit="10" d="
		M43.9,217.7V78.7c0-10.6,3.5-14.4,13.4-14.4h196.2c9.8,0,13.4,3.8,13.4,14.4v138.9"/>
	<path display="inline" fill="#E5E5E5" stroke="#ABABAB" stroke-width="3" stroke-linejoin="round" stroke-miterlimit="10" d="
		M284.7,220.9c0,4.5-3.6,8.9-8.1,8.9H34.2c-4.5,0-8.1-4.5-8.1-8.9v-13.4H35h102.5l8.9,8.9h17.8l8.9-8.9h102.5h8.9V220.9z"/>
	
		<line display="inline" fill="none" stroke="#ABABAB" stroke-width="3" stroke-linecap="round" stroke-linejoin="round" stroke-miterlimit="10" x1="154.9" y1="168.9" x2="220" y2="168.9"/>
	
		<line display="inline" fill="none" stroke="#ABABAB" stroke-width="3" stroke-linecap="round" stroke-linejoin="round" stroke-miterlimit="10" x1="154.9" y1="156" x2="220" y2="156"/>
	
		<line display="inline" fill="none" stroke="#ABABAB" stroke-width="3" stroke-linecap="round" stroke-linejoin="round" stroke-miterlimit="10" x1="154.9" y1="142.1" x2="220" y2="142.1"/>
	
		<line display="inline" fill="none" stroke="#ABABAB" stroke-width="3" stroke-linecap="round" stroke-linejoin="round" stroke-miterlimit="10" x1="154.9" y1="129.3" x2="220" y2="129.3"/>
	
		<line display="inline" fill="none" stroke="#ABABAB" stroke-width="3" stroke-linecap="round" stroke-linejoin="round" stroke-miterlimit="10" x1="154.9" y1="115.4" x2="220" y2="115.4"/>
	
		<line display="inline" fill="none" stroke="#ABABAB" stroke-width="3" stroke-linecap="round" stroke-linejoin="round" stroke-miterlimit="10" x1="154.9" y1="102.5" x2="220" y2="102.5"/>
	<rect x="77.5" y="101.7" display="inline" fill="none" width="245" height="230"/>
	
		<text transform="matrix(1 0 0 1 77.4504 155.0281)" display="inline" fill="#ABABAB" font-family="'ProximaNova-Regular'" font-size="80">{</text>
</g>
<g id="Layer_7">
	<path fill="#ABABAB" d="M144.3,75H61.9c-0.7,0-1.3-0.4-1.6-1s-0.2-1.3,0.2-1.8l19.8-23.4c0.3-0.4,0.8-0.6,1.3-0.6h42.9
		c0.5,0,1,0.2,1.3,0.6l19.8,23.4c0.4,0.5,0.5,1.2,0.2,1.8S144.9,75,144.3,75z M65.6,71.6h75l-16.9-20H82.4L65.6,71.6z"/>
	<polygon fill="#ABABAB" points="103.1,124.8 60.6,74.4 63.2,72.2 103.1,119.5 142.9,72.2 145.6,74.4 	"/>
	<path fill="#ABABAB" d="M103.1,123.9L103.1,123.9c-0.7,0-1.4-0.5-1.6-1.1L84.2,73.8c-0.2-0.5-0.1-1.1,0.2-1.6l17.2-23.4
		c0.6-0.9,2.1-0.9,2.8,0l17.2,23.4c0.3,0.5,0.4,1.1,0.2,1.6l-17.2,48.9C104.4,123.4,103.8,123.9,103.1,123.9z M87.7,73.6l15.3,43.5
		l15.3-43.5l-15.3-20.8L87.7,73.6z"/>
	
		<rect x="71.8" y="59.8" transform="matrix(-0.1759 -0.9844 0.9844 -0.1759 37.8663 154.7978)" fill="#ABABAB" width="23.8" height="3.4"/>
	
		<rect x="120.7" y="49.6" transform="matrix(-0.9844 -0.176 0.176 -0.9844 232.0775 143.6803)" fill="#ABABAB" width="3.4" height="23.8"/>
	<path fill="#ABABAB" d="M223.6,179.6c-1.1,0-2.1-0.3-3.1-0.8l-9.7-5.8c-1.5-0.8-0.7-1.1-0.3-1.3c1.9-0.7,2.3-0.8,4.4-2
		c0.2-0.1,0.5-0.1,0.7,0.1l7.5,4.4c0.3,0.2,0.7,0.2,0.9,0l29.1-16.8c0.3-0.2,0.4-0.5,0.4-0.8V123c0-0.3-0.2-0.6-0.5-0.8l-29.1-16.8
		c-0.3-0.2-0.6-0.2-0.9,0l-29.1,16.8c-0.3,0.2-0.5,0.5-0.5,0.8v33.6c0,0.3,0.2,0.6,0.5,0.8l8,4.6c4.3,2.2,7-0.4,7-2.9v-33.2
		c0-0.5,0.4-0.8,0.8-0.8h3.7c0.5,0,0.8,0.4,0.8,0.8v33.2c0,5.8-3.1,9.1-8.6,9.1c-1.7,0-3,0-6.7-1.8l-7.6-4.4
		c-1.9-1.1-3.1-3.1-3.1-5.3V123c0-2.2,1.2-4.2,3.1-5.3l29.1-16.8c1.8-1,4.3-1,6.1,0l29.1,16.8c1.9,1.1,3.1,3.1,3.1,5.3v33.6
		c0,2.2-1.2,4.2-3.1,5.3l-29.1,16.8C225.8,179.3,224.7,179.6,223.6,179.6z M247.2,146.4c0-6.3-4.3-8-13.2-9.2
		c-9.1-1.2-10-1.8-10-3.9c0-1.7,0.8-4.1,7.5-4.1c6,0,8.2,1.3,9.1,5.3c0.1,0.4,0.4,0.7,0.8,0.7h3.8c0.2,0,0.5-0.1,0.6-0.3
		c0.2-0.2,0.2-0.4,0.2-0.6c-0.6-7-5.2-10.2-14.5-10.2c-8.3,0-13.3,3.5-13.3,9.4c0,6.4,4.9,8.1,12.9,8.9c9.5,0.9,10.3,2.3,10.3,4.2
		c0,3.3-2.6,4.6-8.8,4.6c-7.7,0-9.4-1.9-10-5.8c-0.1-0.4-0.4-0.7-0.8-0.7H218c-0.5,0-0.8,0.4-0.8,0.8c0,4.9,2.7,10.8,15.4,10.8
		C241.9,156.4,247.2,152.8,247.2,146.4z M260,112.3v0.6h1.6v4.3h0.7v-4.3h1.6v-0.6H260z M264.5,117.2h0.6v-2.9c0-0.1,0-0.3,0-0.5
		c0-0.2,0-0.4,0-0.5v-0.1l1.4,4.1h0.7l1.4-4.1c0,0.3,0,0.5,0,0.7c0,0.2,0,0.4,0,0.5v2.9h0.6v-4.9h-0.9l-1.4,4.1l-1.4-4.1h-0.9V117.2
		z"/>
	<path id="path1948" fill="#ABABAB" d="M101.7,175.6c-3.2,0-6.2,0.3-8.9,0.8c-7.9,1.4-9.3,4.3-9.3,9.7v7.1h18.7v2.4H83.5h-7
		c-5.4,0-10.2,3.3-11.7,9.5c-1.7,7.1-1.8,11.5,0,19c1.3,5.5,4.5,9.5,9.9,9.5h6.4v-8.5c0-6.2,5.3-11.6,11.7-11.6h18.6
		c5.2,0,9.3-4.3,9.3-9.5v-17.8c0-5.1-4.3-8.9-9.3-9.7C108.2,175.8,104.9,175.6,101.7,175.6z M91.6,181.3c1.9,0,3.5,1.6,3.5,3.6
		c0,2-1.6,3.5-3.5,3.5c-1.9,0-3.5-1.6-3.5-3.5C88.1,182.9,89.7,181.3,91.6,181.3z"/>
	<path id="path1950" opacity="0.8" fill="#ABABAB" d="M123.1,195.6v8.3c0,6.4-5.4,11.8-11.7,11.8H92.8c-5.1,0-9.3,4.4-9.3,9.5v17.8
		c0,5.1,4.4,8,9.3,9.5c5.9,1.7,11.6,2,18.6,0c4.7-1.4,9.3-4.1,9.3-9.5v-7.1h-18.6v-2.4h18.6h9.3c5.4,0,7.4-3.8,9.3-9.5
		c1.9-5.8,1.9-11.5,0-19c-1.3-5.4-3.9-9.5-9.3-9.5H123.1z M112.6,240.5c1.9,0,3.5,1.6,3.5,3.5c0,2-1.6,3.6-3.5,3.6
		c-1.9,0-3.5-1.6-3.5-3.6C109.1,242.1,110.7,240.5,112.6,240.5z"/>
</g>
<g id="Layer_6" display="none">
	<g display="inline">
		
			<circle fill="none" stroke="#AAAAAA" stroke-width="3" stroke-miterlimit="10" stroke-dasharray="10.0127,10.0127" cx="150" cy="150" r="124.3"/>
	</g>
	<g id="Webcam" display="inline">
		<g>
			<path fill="#FFFFFF" stroke="#ABABAB" stroke-width="3" stroke-miterlimit="10" d="M168.8,294.6v3.8h-37.5v-3.8
				c0-0.8,0.7-1.5,1.5-1.5h9.2v-3.8c2.6,0.7,5.3,1.1,8,1.1c2.8,0,5.5-0.4,8-1.1v3.8h9.2C168.1,293.1,168.8,293.7,168.8,294.6z
				 M176.8,260.9c0,14.8-12,26.8-26.8,26.8c-14.8,0-26.8-12-26.8-26.8c0-0.4,0-0.8,0-1.3c0-0.1,0-0.3,0-0.4c0-0.3,0-0.6,0.1-0.9
				c0-0.2,0-0.3,0-0.5c0-0.3,0.1-0.5,0.1-0.8c0-0.1,0-0.3,0.1-0.4c0.1-0.3,0.1-0.6,0.2-0.9c0-0.1,0-0.2,0-0.3
				c0.1-0.4,0.2-0.8,0.3-1.2c0-0.1,0.1-0.2,0.1-0.3c0.1-0.3,0.2-0.6,0.2-0.8c0-0.1,0.1-0.3,0.1-0.4c0.1-0.2,0.2-0.5,0.2-0.7
				c0.1-0.1,0.1-0.3,0.2-0.4c0.1-0.3,0.2-0.5,0.3-0.7c0.1-0.1,0.1-0.3,0.2-0.4c0.2-0.4,0.3-0.7,0.5-1.1c0-0.1,0.1-0.2,0.1-0.3
				c0.1-0.3,0.3-0.5,0.4-0.8c0.1-0.1,0.2-0.3,0.2-0.4c0.1-0.2,0.2-0.4,0.4-0.6c0.1-0.1,0.2-0.3,0.3-0.4c0.1-0.2,0.2-0.4,0.4-0.6
				c0.1-0.1,0.2-0.3,0.3-0.4c0.2-0.2,0.3-0.4,0.5-0.7c0.1-0.2,0.2-0.3,0.3-0.5c0.2-0.2,0.4-0.5,0.6-0.7c0.1-0.1,0.2-0.3,0.3-0.4
				c0.1-0.2,0.3-0.3,0.4-0.5c0.1-0.1,0.3-0.3,0.4-0.4c0.1-0.1,0.3-0.3,0.4-0.4c0.1-0.1,0.3-0.3,0.4-0.4c0.1-0.1,0.3-0.3,0.4-0.4
				c0.1-0.1,0.3-0.3,0.4-0.4c0.3-0.2,0.5-0.5,0.8-0.7c0.2-0.1,0.3-0.2,0.5-0.4c0.1-0.1,0.3-0.2,0.5-0.4c0.2-0.1,0.3-0.2,0.5-0.4
				c0.1-0.1,0.3-0.2,0.4-0.3c0.2-0.1,0.3-0.2,0.5-0.4c0.1-0.1,0.3-0.2,0.5-0.3c0.2-0.1,0.4-0.2,0.5-0.3c0.1-0.1,0.3-0.2,0.5-0.3
				c0.3-0.2,0.7-0.4,1.1-0.6c0.1-0.1,0.3-0.2,0.4-0.2c0.2-0.1,0.4-0.2,0.6-0.3c0.2-0.1,0.3-0.1,0.5-0.2c0.2-0.1,0.4-0.2,0.6-0.3
				c0.2-0.1,0.3-0.1,0.5-0.2c0.2-0.1,0.4-0.2,0.6-0.2c0.1-0.1,0.3-0.1,0.4-0.1c2.7-0.9,5.6-1.4,8.6-1.4c3,0,5.9,0.5,8.6,1.4
				c0.1,0,0.3,0.1,0.4,0.2c0.2,0.1,0.4,0.2,0.6,0.2c0.2,0.1,0.3,0.1,0.5,0.2c0.2,0.1,0.4,0.2,0.6,0.3c0.2,0.1,0.3,0.1,0.5,0.2
				c0.2,0.1,0.4,0.2,0.6,0.3c0.2,0.1,0.3,0.2,0.5,0.2c0.3,0.2,0.7,0.4,1,0.6c0.2,0.1,0.3,0.2,0.5,0.3c0.2,0.1,0.4,0.2,0.5,0.3
				c0.2,0.1,0.3,0.2,0.5,0.3c0.2,0.1,0.3,0.2,0.5,0.3c0.2,0.1,0.3,0.2,0.5,0.3c0.2,0.1,0.3,0.2,0.5,0.4c0.2,0.1,0.3,0.2,0.5,0.4
				c0.2,0.1,0.3,0.2,0.5,0.4c0.3,0.2,0.5,0.5,0.8,0.7c0.1,0.1,0.3,0.2,0.4,0.4c0.2,0.1,0.3,0.3,0.5,0.4c0.1,0.1,0.3,0.3,0.4,0.4
				c0.1,0.1,0.3,0.3,0.4,0.4c0.1,0.1,0.3,0.3,0.4,0.4c0.1,0.2,0.3,0.3,0.4,0.5c0.1,0.1,0.2,0.3,0.3,0.4c0.2,0.2,0.4,0.5,0.6,0.7
				c0.1,0.1,0.2,0.3,0.3,0.4c0.2,0.2,0.3,0.4,0.5,0.7c0.1,0.1,0.2,0.3,0.3,0.4c0.1,0.2,0.3,0.4,0.4,0.6c0.1,0.1,0.2,0.3,0.3,0.4
				c0.1,0.2,0.2,0.4,0.4,0.6c0.1,0.1,0.2,0.3,0.2,0.4c0.1,0.3,0.3,0.5,0.4,0.8c0,0.1,0.1,0.2,0.1,0.3c0.2,0.3,0.3,0.7,0.5,1.1
				c0.1,0.1,0.1,0.2,0.2,0.4c0.1,0.2,0.2,0.5,0.3,0.7c0.1,0.1,0.1,0.3,0.2,0.4c0.1,0.2,0.2,0.5,0.2,0.7c0,0.1,0.1,0.3,0.1,0.4
				c0.1,0.3,0.2,0.6,0.2,0.8c0,0.1,0.1,0.2,0.1,0.3c0.1,0.4,0.2,0.8,0.3,1.2c0,0.1,0,0.2,0.1,0.3c0.1,0.3,0.1,0.6,0.2,0.9
				c0,0.1,0,0.3,0.1,0.4c0,0.3,0.1,0.5,0.1,0.8c0,0.1,0,0.3,0,0.5c0,0.3,0,0.6,0.1,0.9c0,0.1,0,0.3,0,0.4
				C176.8,260,176.8,260.5,176.8,260.9z M166.1,260.9c0-8.9-7.2-16.1-16.1-16.1c-8.9,0-16.1,7.2-16.1,16.1S141.1,277,150,277
				C158.9,277,166.1,269.8,166.1,260.9z M150,238.1c-2.2,0-4.3,0.3-6.3,0.9c1.5,1.9,3.7,3.1,6.3,3.1s4.9-1.2,6.3-3.1
				C154.3,238.4,152.2,238.1,150,238.1z M150,250.2c-1.7,0-3.3,0.4-4.8,1.2c1,0.7,1.7,1.9,1.7,3.2c0,2.2-1.8,4-4,4
				c-1.2,0-2.2-0.5-2.9-1.3c-0.4,1.1-0.7,2.3-0.7,3.6c0,5.9,4.8,10.7,10.7,10.7c5.9,0,10.7-4.8,10.7-10.7
				C160.7,255,155.9,250.2,150,250.2z"/>
		</g>
	</g>
	
		<line display="inline" fill="none" stroke="#AAAAAA" stroke-width="3" stroke-miterlimit="10" x1="-23" y1="153.7" x2="334.3" y2="153.7"/>
	<g display="inline">
		<g>
			<path fill="#ABABAB" d="M116.8,151.1c-0.1-4.5,0.5-8.8,2.1-12.9c1.5-4.1,3.8-7.7,6.7-10.8c2.9-3.1,6.4-5.5,10.4-7.3
				c4-1.8,8.3-2.8,12.9-2.9c4.6-0.2,8.9,0.5,13.1,2.1c4.1,1.5,7.8,3.7,10.9,6.6c3.1,2.9,5.6,6.3,7.4,10.3c1.8,4,2.8,8.2,3,12.8
				c0.2,4.5-0.6,8.8-2.1,12.9c-1.6,4.1-3.8,7.7-6.7,10.8c-2.9,3.1-6.4,5.5-10.4,7.3c-4,1.8-8.3,2.8-12.9,2.9
				c-4.6,0.2-8.9-0.5-13.1-2.1c-4.1-1.5-7.8-3.7-10.9-6.6c-3.1-2.9-5.6-6.3-7.4-10.3C117.9,159.9,116.9,155.6,116.8,151.1z"/>
		</g>
		<g>
			<path fill="#FFFFFF" d="M165.1,159.8c-1.5,2-3.4,3.6-5.8,4.8c-2.4,1.2-4.8,1.8-7.4,1.9c-2.4,0.1-4.7-0.2-6.9-0.9
				c-2.2-0.7-4.1-1.7-5.7-3.1c-1.6-1.4-2.9-3.1-3.9-5.1c-1-2-1.5-4.2-1.6-6.7c-0.1-2.5,0.3-4.8,1.1-6.8c0.8-2.1,2-3.8,3.6-5.3
				c1.5-1.5,3.4-2.7,5.5-3.5c2.1-0.8,4.4-1.3,6.8-1.4c2.3-0.1,4.3,0.2,6.2,1c1.9,0.7,3.5,1.8,4.8,3.2c1.3,1.4,2.4,3.1,3.1,5.1
				c0.8,2,1.2,4.2,1.3,6.7l0.1,3l-22.7,0.8c0.5,1.8,1.4,3.3,2.7,4.3c1.3,1.1,3,1.5,4.9,1.5c1.6-0.1,3-0.5,4-1.2
				c1.1-0.7,2-1.7,2.8-2.8L165.1,159.8z M156.3,146.3c0-1.6-0.6-3-1.8-4.1c-1.2-1.1-2.6-1.7-4.4-1.6c-1.1,0-2,0.2-2.9,0.6
				c-0.8,0.4-1.5,0.8-2.1,1.4c-0.6,0.6-1,1.2-1.3,1.9c-0.3,0.7-0.5,1.5-0.5,2.2L156.3,146.3z"/>
		</g>
	</g>
	<g id="Cloud_Internet_Symbol" display="inline">
	</g>
	<g id="Cloud_Internet_Symbol_1_" display="inline">
	</g>
	<g id="Cloud" display="inline">
		<g>
			<path fill="#FFFFFF" stroke="#ABABAB" stroke-width="3" stroke-miterlimit="10" d="M173.8,18.7C173.8,18.7,173.8,18.7,173.8,18.7
				c-0.6-9.5-8.6-17.1-18.2-17.1c-8.9,0-16.4,6.4-17.9,14.9c-0.2,0-0.4,0-0.6,0c-6.7,0-12.3,4.4-14.1,10.5c-0.3,0-0.6,0-0.9,0
				c-5.3,0-9.5,4.3-9.5,9.5c0,5.3,4.3,9.5,9.5,9.5c0.1,0,51.7,0,51.7,0c7.5,0,13.6-6.1,13.6-13.6C187.4,24.8,181.3,18.7,173.8,18.7z
				"/>
		</g>
	</g>
</g>
</svg>
