<svg xmlns="http://www.w3.org/2000/svg" viewBox="0 0 300 300" enable-background="new 0 0 300 300"><g fill="#ABABAB"><path d="M144.3 75H61.9c-.7 0-1.3-.4-1.6-1s-.2-1.3.2-1.8l19.8-23.4c.3-.4.8-.6 1.3-.6h42.9c.5 0 1 .2 1.3.6l19.8 23.4c.4.5.5 1.2.2 1.8s-.9 1-1.5 1zm-78.7-3.4h75l-16.9-20H82.4l-16.8 20zM103.1 124.8L60.6 74.4l2.6-2.2 39.9 47.3 39.8-47.3 2.7 2.2zM103.1 123.9c-.7 0-1.4-.5-1.6-1.1l-17.3-49c-.2-.5-.1-1.1.2-1.6l17.2-23.4c.6-.9 2.1-.9 2.8 0l17.2 23.4c.3.5.4 1.1.2 1.6l-17.2 48.9c-.2.7-.8 1.2-1.5 1.2zM87.7 73.6l15.3 43.5 15.3-43.5L103 52.8 87.7 73.6zM84.104 73.6l-4.187-23.43 3.347-.598 4.187 23.43zM121.99 73.61l-3.347-.598 4.19-23.428 3.346.598zM223.6 179.6c-1.1 0-2.1-.3-3.1-.8l-9.7-5.8c-1.5-.8-.7-1.1-.3-1.3 1.9-.7 2.3-.8 4.4-2 .2-.1.5-.1.7.1l7.5 4.4c.3.2.7.2.9 0l29.1-16.8c.3-.2.4-.5.4-.8V123c0-.3-.2-.6-.5-.8l-29.1-16.8c-.3-.2-.6-.2-.9 0l-29.1 16.8c-.3.2-.5.5-.5.8v33.6c0 .3.2.6.5.8l8 4.6c4.3 2.2 7-.4 7-2.9v-33.2c0-.5.4-.8.8-.8h3.7c.5 0 .8.4.8.8v33.2c0 5.8-3.1 9.1-8.6 9.1-1.7 0-3 0-6.7-1.8l-7.6-4.4c-1.9-1.1-3.1-3.1-3.1-5.3V123c0-2.2 1.2-4.2 3.1-5.3l29.1-16.8c1.8-1 4.3-1 6.1 0l29.1 16.8c1.9 1.1 3.1 3.1 3.1 5.3v33.6c0 2.2-1.2 4.2-3.1 5.3l-29.1 16.8c-.7.6-1.8.9-2.9.9zm23.6-33.2c0-6.3-4.3-8-13.2-9.2-9.1-1.2-10-1.8-10-3.9 0-1.7.8-4.1 7.5-4.1 6 0 8.2 1.3 9.1 5.3.1.4.4.7.8.7h3.8c.2 0 .5-.1.6-.3.2-.2.2-.4.2-.6-.6-7-5.2-10.2-14.5-10.2-8.3 0-13.3 3.5-13.3 9.4 0 6.4 4.9 8.1 12.9 8.9 9.5.9 10.3 2.3 10.3 4.2 0 3.3-2.6 4.6-8.8 4.6-7.7 0-9.4-1.9-10-5.8-.1-.4-.4-.7-.8-.7H218c-.5 0-.8.4-.8.8 0 4.9 2.7 10.8 15.4 10.8 9.3.1 14.6-3.5 14.6-9.9zm12.8-34.1v.6h1.6v4.3h.7v-4.3h1.6v-.6H260zm4.5 4.9h.6v-4l1.4 4.1h.7l1.4-4.1v4.1h.6v-4.9h-.9l-1.4 4.1-1.4-4.1h-.9v4.8z"/><path d="M101.7 175.6c-3.2 0-6.2.3-8.9.8-7.9 1.4-9.3 4.3-9.3 9.7v7.1h18.7v2.4H76.5c-5.4 0-10.2 3.3-11.7 9.5-1.7 7.1-1.8 11.5 0 19 1.3 5.5 4.5 9.5 9.9 9.5h6.4v-8.5c0-6.2 5.3-11.6 11.7-11.6h18.6c5.2 0 9.3-4.3 9.3-9.5v-17.8c0-5.1-4.3-8.9-9.3-9.7-3.2-.7-6.5-.9-9.7-.9zm-10.1 5.7c1.9 0 3.5 1.6 3.5 3.6s-1.6 3.5-3.5 3.5-3.5-1.6-3.5-3.5c0-2 1.6-3.6 3.5-3.6z"/><path opacity=".8" d="M123.1 195.6v8.3c0 6.4-5.4 11.8-11.7 11.8H92.8c-5.1 0-9.3 4.4-9.3 9.5V243c0 5.1 4.4 8 9.3 9.5 5.9 1.7 11.6 2 18.6 0 4.7-1.4 9.3-4.1 9.3-9.5v-7.1h-18.6v-2.4H130c5.4 0 7.4-3.8 9.3-9.5 1.9-5.8 1.9-11.5 0-19-1.3-5.4-3.9-9.5-9.3-9.5h-6.9zm-10.5 44.9c1.9 0 3.5 1.6 3.5 3.5 0 2-1.6 3.6-3.5 3.6s-3.5-1.6-3.5-3.6c0-1.9 1.6-3.5 3.5-3.5z"/></g></svg>